<svg xmlns="http://www.w3.org/2000/svg" width="81" height="80" viewBox="0 0 81 80" fill="none">
<path d="M54.0996 38.8947C55.5346 38.8947 56.9707 38.9579 58.3988 39.0858C62.5109 39.4561 65.9445 40.6291 68.6059 42.5724C70.275 43.7911 71.6259 45.3162 72.6031 47.0687C72.99 45.3265 73.2522 43.532 73.3869 41.6956C73.6634 37.9289 73.2091 34.1111 72.0368 30.3489C70.8527 26.5484 69.0032 23.023 66.54 19.8708C63.9765 16.5902 60.8624 13.8692 57.2846 11.7837C53.4508 9.5488 49.1736 8.10413 44.572 7.48983C40.3137 6.92141 36.1239 7.20002 32.119 8.31819C28.8865 9.22057 25.7507 10.6718 22.7983 12.6315C17.742 15.988 14.9179 19.7341 14.8068 19.8831C14.7844 19.9143 14.7723 19.9299 14.7478 19.9618C13.6445 21.3926 12.6594 22.917 11.8034 24.5165C11.1285 26.0692 10.8847 27.4568 11.0983 28.5439C11.2637 29.3854 11.7053 30.044 12.4485 30.5572C13.9367 31.5847 16.3949 31.8641 19.0243 31.3042C22.3323 30.5999 25.6901 28.6427 28.4791 25.793C32.2408 21.9494 35.4218 18.967 38.7192 16.9051C40.7413 15.6406 42.6395 14.8351 44.522 14.4421C46.762 13.9747 48.9497 14.1139 51.0245 14.856C53.8643 15.8717 55.7806 17.952 56.4203 20.7139C56.9013 22.7899 56.6154 25.1624 55.5939 27.5752C54.7038 29.6778 53.2693 31.7793 51.4458 33.6528C50.7137 34.405 49.8648 35.111 48.9028 35.7688C49.0096 35.8543 49.1146 35.9414 49.2176 36.0302C50.1851 36.8643 50.9919 37.8451 51.627 38.9573C52.4493 38.9157 53.2741 38.8947 54.0996 38.8947ZM46.1097 46.8701C43.9114 47.3066 41.793 47.9245 39.8137 48.716C34.5721 50.8116 32.2966 52.7212 31.55 54.4939C31.2357 55.24 30.634 56.873 32.1066 58.1341C33.4745 59.3055 36.0289 59.2991 38.6144 58.1177C40.6545 57.1855 42.5031 55.6149 43.8195 53.6953C45.2019 51.68 45.9707 49.3868 46.1097 46.8701ZM8.07933 36.2865C7.84385 38.2359 7.88879 39.4346 7.88959 39.4511C7.89492 39.5622 7.89519 39.6735 7.89025 39.7846C7.57865 46.791 10.4011 54.6785 15.4403 60.8838C18.1418 64.2105 21.3348 66.9089 24.9309 68.9044C28.8326 71.0694 33.1046 72.3351 37.6284 72.6665C37.6446 72.6677 37.6606 72.6691 37.6767 72.6705C41.035 72.9617 44.384 72.7501 47.6308 72.041C50.231 71.4731 52.7745 70.5866 55.1908 69.4063C59.1915 67.4519 61.45 65.3679 61.4718 65.3474C61.5576 65.2662 61.6475 65.1893 61.741 65.1168C63.7446 63.5658 65.3797 61.3363 66.3451 58.8394C67.2851 56.4083 67.4826 53.9743 66.9014 51.9858C66.4722 50.5176 65.6172 49.308 64.3601 48.39C62.7685 47.2278 60.5462 46.5111 57.7548 46.2598C56.2845 46.1282 54.8058 46.0764 53.3335 46.1026C53.3335 46.1214 53.3333 46.1403 53.3333 46.1591C53.3095 50.3791 52.073 54.3942 49.7575 57.77C48.7096 59.2981 47.4575 60.6756 46.0361 61.8648C44.6717 63.006 43.1814 63.9496 41.6066 64.6693C39.2137 65.7626 36.7065 66.2921 34.3558 66.2011C31.682 66.0974 29.2848 65.1998 27.4231 63.6054C25.6471 62.0844 24.4952 60.3169 23.9996 58.3521C23.5166 56.4382 23.698 54.39 24.5238 52.4291C25.4288 50.2804 27.0684 48.2509 29.3972 46.397C31.5293 44.6996 34.1347 43.2295 37.1409 42.0276C38.7774 41.3734 40.4909 40.818 42.2569 40.3651C40.6106 39.9203 38.8492 39.9869 38.0719 40.0966C37.8751 40.1289 37.6792 40.1445 37.4861 40.1445C35.7717 40.1447 34.2642 38.9118 33.9566 37.1656C33.6142 35.2212 34.9138 33.3619 36.8536 32.9988C38.632 32.6539 43.7846 31.1985 46.2862 28.6282C48.6869 26.1619 50.253 22.5958 48.5999 21.6383C47.5767 20.9599 45.7671 20.9923 42.5364 23.0126C39.6846 24.7959 36.568 27.8245 33.6249 30.8317C31.6769 32.822 29.5261 34.4855 27.2318 35.7761C25.0593 36.9983 22.8022 37.864 20.5234 38.3492C18.2814 38.8266 16.1031 38.9199 14.0489 38.6265C11.8828 38.3172 9.96791 37.5968 8.35773 36.4849C8.26346 36.4198 8.17079 36.3538 8.07933 36.2865ZM40.5953 80C39.4254 80 38.2528 79.9496 37.0792 79.8485C31.5151 79.4374 26.2524 77.8745 21.4378 75.203C17.0334 72.7591 13.135 69.4694 9.85084 65.4251C6.81703 61.6892 4.37938 57.338 2.80147 52.8416C1.25117 48.4244 0.522084 43.8521 0.690354 39.6077C0.65502 38.2315 0.669685 30.1909 5.33446 21.3408C5.35566 21.2943 5.37686 21.2477 5.39846 21.2012L5.40646 21.2049C6.39262 19.3512 7.58438 17.4619 9.02202 15.5937C9.43109 15.0427 12.7282 10.7327 18.562 6.80031C22.1609 4.37444 26.0081 2.56863 29.9972 1.43298C35.0038 0.00752258 40.2281 -0.35672 45.5246 0.350403C51.0739 1.09114 56.2505 2.84415 60.9103 5.5605C65.2816 8.10854 69.0846 11.4309 72.2136 15.4352C75.2142 19.2752 77.4678 23.5718 78.9117 28.2057C80.354 32.8347 80.9114 37.5508 80.5686 42.2228C80.2157 47.0326 79.1245 51.6203 77.3253 55.8586C75.8808 59.2615 73.9809 62.4429 71.6783 65.3145C68.0093 69.8902 64.4285 72.2617 63.7896 72.666C62.4463 73.6158 60.6142 74.7728 58.351 75.8783C55.4186 77.311 52.3285 78.3876 49.1668 79.078C46.3565 79.6918 43.4856 80 40.5953 80Z" fill="#ADB1BD"/>
</svg>