<?xml version="1.0" encoding="UTF-8"?>
<svg id="Layer_2" data-name="Layer 2" xmlns="http://www.w3.org/2000/svg" xmlns:xlink="http://www.w3.org/1999/xlink" viewBox="0 0 600 599.84">
  <defs>
    <style>
      .cls-1 {
        fill: url(#linear-gradient);
      }

      .cls-1, .cls-2, .cls-3 {
        stroke-width: 0px;
      }

      .cls-2 {
        fill: url(#linear-gradient-2);
      }

      .cls-3 {
        fill: url(#linear-gradient-3);
      }
    </style>
    <linearGradient id="linear-gradient" x1="31.96" y1="542.07" x2="582.83" y2="46.29" gradientUnits="userSpaceOnUse">
      <stop offset=".01" stop-color="#21054c"/>
      <stop offset=".51" stop-color="#41258e"/>
      <stop offset="1" stop-color="#3b0099"/>
    </linearGradient>
    <linearGradient id="linear-gradient-2" x1="567.08" y1="159.47" x2="501.46" y2="485.27" gradientUnits="userSpaceOnUse">
      <stop offset=".01" stop-color="#21054c" stop-opacity="0"/>
      <stop offset="1" stop-color="#9d77ab"/>
    </linearGradient>
    <linearGradient id="linear-gradient-3" x1="22.52" y1="522.06" x2="146.56" y2="145.35" gradientUnits="userSpaceOnUse">
      <stop offset=".01" stop-color="#21054c" stop-opacity="0"/>
      <stop offset="1" stop-color="#9d77ab"/>
    </linearGradient>
  </defs>
  <g id="Layer_1-2" data-name="Layer 1">
    <g>
      <path class="cls-1" d="m299.46,599.84c-8.77,0-17.57-.38-26.37-1.14-41.73-3.08-81.2-14.8-117.31-34.83-33.03-18.32-62.27-42.99-86.9-73.31-22.75-28.01-41.03-60.64-52.87-94.35C4.38,363.08-1.08,328.8.18,296.98c-.26-10.32-.15-70.61,34.83-136.96.16-.35.32-.7.48-1.05l.06.03c7.4-13.9,16.33-28.07,27.12-42.07,3.07-4.13,27.8-36.45,71.55-65.93,26.99-18.19,55.84-31.73,85.76-40.24C257.52.06,296.7-2.67,336.43,2.63c41.62,5.55,80.44,18.7,115.39,39.06,32.78,19.11,61.31,44.02,84.77,74.04,22.5,28.79,39.41,61.01,50.23,95.75,10.82,34.71,15,70.07,12.43,105.1-2.65,36.06-10.83,70.46-24.32,102.24-10.83,25.52-25.08,49.37-42.35,70.9-27.52,34.31-54.37,52.09-59.16,55.12-10.07,7.12-23.81,15.8-40.79,24.09-21.99,10.74-45.17,18.81-68.88,23.99-21.08,4.6-42.61,6.91-64.29,6.91ZM55.59,272.07c-1.77,14.62-1.43,23.6-1.42,23.73.04.83.04,1.67,0,2.5-2.34,52.53,18.83,111.67,56.62,158.2,20.26,24.94,44.21,45.18,71.18,60.14,29.26,16.23,61.3,25.72,95.23,28.21.12,0,.24.02.36.03,25.19,2.18,50.3.6,74.65-4.72,19.5-4.26,38.58-10.91,56.7-19.76,30-14.65,46.94-30.28,47.11-30.43.64-.61,1.32-1.19,2.02-1.73,15.03-11.63,27.29-28.35,34.53-47.07,7.05-18.23,8.53-36.48,4.17-51.39-3.22-11.01-9.63-20.08-19.06-26.96-11.94-8.71-28.6-14.09-49.54-15.97-11.03-.99-22.12-1.38-33.16-1.18,0,.14,0,.28,0,.42-.18,31.64-9.45,61.75-26.82,87.06-7.86,11.46-17.25,21.79-27.91,30.7-10.23,8.56-21.41,15.63-33.22,21.03-17.95,8.2-36.75,12.17-54.38,11.49-20.05-.78-38.03-7.51-51.99-19.46-13.32-11.4-21.96-24.66-25.68-39.39-3.62-14.35-2.26-29.71,3.93-44.41,6.79-16.11,19.08-31.33,36.55-45.23,15.99-12.73,35.53-23.75,58.08-32.76,12.27-4.91,25.12-9.07,38.37-12.47-12.35-3.33-25.56-2.84-31.39-2.01-1.48.24-2.95.36-4.39.36-12.86,0-24.16-9.24-26.47-22.34-2.57-14.58,7.18-28.52,21.73-31.24,13.34-2.59,51.98-13.5,70.74-32.77,18-18.49,29.75-45.23,17.35-52.41-7.67-5.09-21.25-4.84-45.48,10.3-21.39,13.37-44.76,36.08-66.84,58.63-14.61,14.92-30.74,27.4-47.95,37.07-16.29,9.16-33.22,15.66-50.31,19.29-16.81,3.58-33.15,4.28-48.56,2.08-16.25-2.32-30.61-7.72-42.68-16.06-.71-.49-1.4-.98-2.09-1.49Zm285.22,79.36c-16.49,3.27-32.37,7.91-47.22,13.84-39.31,15.71-56.38,30.03-61.98,43.32-2.36,5.59-6.87,17.84,4.17,27.29,10.26,8.78,29.42,8.73,48.81-.12,15.3-6.99,29.16-18.77,39.04-33.16,10.37-15.11,16.13-32.3,17.18-51.18Zm59.92-59.8c10.76,0,21.53.47,32.24,1.43,30.84,2.78,56.59,11.57,76.55,26.14,12.52,9.14,22.65,20.57,29.98,33.71,2.9-13.06,4.87-26.52,5.88-40.29,2.07-28.24-1.33-56.87-10.13-85.08-8.88-28.5-22.75-54.93-41.23-78.56-19.23-24.6-42.58-45-69.41-60.64-28.75-16.76-60.83-27.59-95.34-32.19-31.94-4.26-63.36-2.17-93.4,6.21-24.24,6.77-47.76,17.65-69.9,32.34-37.92,25.17-59.1,53.25-59.94,54.37-.17.23-.26.35-.44.59-8.27,10.73-15.66,22.16-22.08,34.15-5.06,11.64-6.89,22.05-5.29,30.2,1.24,6.31,4.55,11.25,10.13,15.1,11.16,7.7,29.6,9.8,49.32,5.6,24.81-5.28,49.99-19.96,70.91-41.32,28.21-28.82,52.07-51.18,76.8-66.64,15.16-9.48,29.4-15.52,43.52-18.47,16.8-3.5,33.21-2.46,48.77,3.1,21.3,7.62,35.67,23.21,40.47,43.92,3.61,15.57,1.46,33.36-6.2,51.45-6.68,15.76-17.43,31.52-31.11,45.57-5.49,5.64-11.86,10.93-19.07,15.87.8.64,1.59,1.29,2.36,1.96,7.26,6.25,13.31,13.61,18.07,21.95,6.17-.31,12.35-.47,18.54-.47Z"/>
      <path class="cls-2" d="m574.94,418.8c13.49-31.78,21.68-66.18,24.32-102.24,2.57-35.03-1.61-70.39-12.43-105.1-8.82-28.28-21.66-54.89-38.27-79.34l-47.76,25.92c15.13,21.26,26.7,44.59,34.46,69.5,8.79,28.21,12.2,56.83,10.13,85.08-1.01,13.77-2.98,27.22-5.88,40.29,20.46,33.77,24.21,98.02-6.94,136.81,17.27-21.53,31.52-45.38,42.35-70.9Z"/>
      <path class="cls-3" d="m144.13,490.41c-11.99-10.1-23.12-21.46-33.32-34.02-37.79-46.53-58.96-105.67-56.62-158.2.04-.89.05-1.57,0-2.44-.02-.75-.26-9.64,1.41-23.65-10.07-6.89-52.1-40.03-27.15-98.94C.03,234.12-.06,287.24.19,296.87c-1.26,31.82,4.21,66.11,15.83,99.23,11.83,33.71,30.12,66.34,52.87,94.35,16.08,19.8,34.13,37.19,53.92,51.97l21.32-52Z"/>
    </g>
  </g>
</svg>