<?xml version="1.0" encoding="UTF-8"?>
<svg id="Layer_2" data-name="Layer 2" xmlns="http://www.w3.org/2000/svg" xmlns:xlink="http://www.w3.org/1999/xlink" viewBox="0 0 1091.98 303.77">
  <defs>
    <style>
      .cls-1 {
        fill: url(#linear-gradient);
      }

      .cls-1, .cls-2, .cls-3, .cls-4 {
        stroke-width: 0px;
      }

      .cls-2 {
        fill: url(#linear-gradient-2);
      }

      .cls-3 {
        fill: url(#linear-gradient-3);
      }

      .cls-4 {
        fill: #3b0099;
      }
    </style>
    <linearGradient id="linear-gradient" x1="16.19" y1="274.51" x2="295.15" y2="23.44" gradientUnits="userSpaceOnUse">
      <stop offset=".01" stop-color="#21054c"/>
      <stop offset=".51" stop-color="#41258e"/>
      <stop offset="1" stop-color="#3b0099"/>
    </linearGradient>
    <linearGradient id="linear-gradient-2" x1="287.18" y1="80.76" x2="253.95" y2="245.75" gradientUnits="userSpaceOnUse">
      <stop offset=".01" stop-color="#21054c" stop-opacity="0"/>
      <stop offset="1" stop-color="#9d77ab"/>
    </linearGradient>
    <linearGradient id="linear-gradient-3" x1="11.4" y1="264.38" x2="74.22" y2="73.61" gradientUnits="userSpaceOnUse">
      <stop offset=".01" stop-color="#21054c" stop-opacity="0"/>
      <stop offset="1" stop-color="#9d77ab"/>
    </linearGradient>
  </defs>
  <g id="Layer_1-2" data-name="Layer 1">
    <path class="cls-1" d="m151.65,303.77c-4.44,0-8.9-.19-13.35-.58-21.13-1.56-41.12-7.5-59.41-17.64-16.73-9.28-31.53-21.77-44.01-37.13-11.52-14.19-20.78-30.71-26.77-47.78C2.22,183.87-.55,166.51.09,150.39c-.13-5.23-.08-35.76,17.64-69.36.08-.18.16-.35.24-.53h.03c3.75-7.02,8.27-14.2,13.73-21.29,1.55-2.09,14.08-18.46,36.23-33.39,13.67-9.21,28.28-16.07,43.43-20.38C130.41.03,150.26-1.35,170.37,1.33c21.08,2.81,40.74,9.47,58.44,19.78,16.6,9.68,31.05,22.29,42.93,37.5,11.4,14.58,19.96,30.9,25.44,48.49,5.48,17.58,7.6,35.48,6.29,53.22-1.34,18.26-5.49,35.68-12.32,51.78-5.49,12.92-12.7,25-21.45,35.9-13.94,17.37-27.53,26.38-29.96,27.91-5.1,3.61-12.06,8-20.66,12.2-11.14,5.44-22.87,9.53-34.88,12.15-10.67,2.33-21.58,3.5-32.56,3.5ZM28.15,137.78c-.89,7.4-.72,11.95-.72,12.02.02.42.02.84,0,1.27-1.18,26.6,9.54,56.55,28.68,80.12,10.26,12.63,22.39,22.88,36.05,30.45,14.82,8.22,31.04,13.03,48.23,14.29.06,0,.12,0,.18.01,12.76,1.11,25.48.3,37.81-2.39,9.88-2.16,19.54-5.52,28.71-10,15.19-7.42,23.77-15.33,23.86-15.41.33-.31.67-.6,1.02-.88,7.61-5.89,13.82-14.35,17.49-23.84,3.57-9.23,4.32-18.47,2.11-26.02-1.63-5.57-4.88-10.17-9.65-13.65-6.05-4.41-14.49-7.13-25.09-8.09-5.58-.5-11.2-.7-16.79-.6,0,.07,0,.14,0,.22-.09,16.02-4.79,31.27-13.58,44.09-3.98,5.8-8.74,11.03-14.13,15.55-5.18,4.33-10.84,7.92-16.82,10.65-9.09,4.15-18.61,6.16-27.54,5.82-10.15-.39-19.26-3.8-26.33-9.86-6.75-5.78-11.12-12.49-13-19.95-1.83-7.27-1.15-15.04,1.99-22.49,3.44-8.16,9.66-15.87,18.51-22.9,8.1-6.45,17.99-12.03,29.41-16.59,6.22-2.48,12.72-4.59,19.43-6.31-6.25-1.69-12.94-1.44-15.89-1.02-.75.12-1.49.18-2.22.18-6.51,0-12.24-4.68-13.41-11.31-1.3-7.38,3.64-14.44,11-15.82,6.75-1.31,26.32-6.84,35.83-16.6,9.12-9.37,15.07-22.91,8.79-26.54-3.89-2.58-10.76-2.45-23.03,5.22-10.83,6.77-22.67,18.27-33.85,29.69-7.4,7.56-15.57,13.87-24.28,18.77-8.25,4.64-16.82,7.93-25.48,9.77-8.52,1.81-16.79,2.17-24.59,1.05-8.23-1.17-15.5-3.91-21.62-8.13-.36-.25-.71-.5-1.06-.75Zm144.44,40.19c-8.35,1.66-16.39,4-23.91,7.01-19.91,7.96-28.55,15.21-31.39,21.94-1.19,2.83-3.48,9.03,2.11,13.82,5.2,4.45,14.9,4.42,24.72-.06,7.75-3.54,14.77-9.5,19.77-16.79,5.25-7.65,8.17-16.36,8.7-25.92Zm30.35-30.28c5.45,0,10.9.24,16.33.73,15.62,1.41,28.66,5.86,38.77,13.24,6.34,4.63,11.47,10.42,15.18,17.07,1.47-6.62,2.47-13.43,2.98-20.4,1.05-14.3-.68-28.8-5.13-43.08-4.5-14.43-11.52-27.82-20.88-39.79-9.74-12.46-21.56-22.79-35.15-30.71-14.56-8.49-30.81-13.97-48.28-16.3-16.17-2.16-32.09-1.1-47.3,3.15-12.28,3.43-24.19,8.94-35.4,16.38-19.2,12.74-29.93,26.97-30.35,27.53-.08.12-.13.18-.22.3-4.19,5.43-7.93,11.22-11.18,17.29-2.56,5.9-3.49,11.16-2.68,15.29.63,3.2,2.31,5.7,5.13,7.64,5.65,3.9,14.99,4.96,24.97,2.84,12.56-2.67,25.32-10.11,35.91-20.93,14.29-14.59,26.37-25.92,38.89-33.75,7.68-4.8,14.89-7.86,22.04-9.35,8.51-1.77,16.82-1.25,24.7,1.57,10.79,3.86,18.06,11.76,20.49,22.24,1.83,7.88.74,16.89-3.14,26.05-3.38,7.98-8.83,15.96-15.75,23.08-2.78,2.86-6,5.54-9.66,8.03.41.32.8.66,1.2.99,3.67,3.17,6.74,6.89,9.15,11.11,3.12-.16,6.26-.24,9.39-.24Z"/>
    <path class="cls-2" d="m291.16,212.09c6.83-16.09,10.98-33.51,12.32-51.78,1.3-17.74-.82-35.65-6.29-53.22-4.46-14.32-10.97-27.8-19.38-40.18l-24.18,13.12c7.66,10.77,13.52,22.58,17.45,35.19,4.45,14.29,6.18,28.78,5.13,43.08-.51,6.97-1.51,13.79-2.98,20.4,10.36,17.1,12.26,49.64-3.51,69.28,8.75-10.9,15.96-22.98,21.45-35.9Z"/>
    <path class="cls-3" d="m72.99,248.35c-6.07-5.11-11.71-10.87-16.88-17.23-19.14-23.56-29.86-53.51-28.68-80.12.02-.45.02-.79,0-1.24-.01-.38-.13-4.88.72-11.98-5.1-3.49-26.38-20.27-13.75-50.11C.01,118.56-.03,145.46.1,150.34c-.64,16.12,2.13,33.48,8.02,50.25,5.99,17.07,15.25,33.6,26.77,47.78,8.15,10.03,17.29,18.83,27.31,26.32l10.8-26.34Z"/>
    <g>
      <path class="cls-4" d="m329.59,202.28l74.3-103.76h-72.59v-25.19h108.03v20.5l-74.3,103.76h76v25.19h-111.44v-20.5Z"/>
      <path class="cls-4" d="m444.02,167.06c0-35.23,25.62-59.14,58.71-59.14,31.17,0,55.08,21.56,55.08,55.3,0,3.2-.21,6.19-.43,8.97h-87.75c2.35,20.28,16.01,30.53,33.52,30.53,13.02,0,23.49-5.76,27.97-15.16h25.19c-6.19,23.06-27.11,36.94-53.8,36.94-34.37,0-58.5-23.06-58.5-57.43Zm87.75-13.45c-2.78-16.23-13.88-24.13-29.04-24.13s-27.54,8.54-31.81,24.13h60.85Z"/>
      <path class="cls-4" d="m569.77,66.93h26.05v155.85h-26.05V66.93Z"/>
      <path class="cls-4" d="m626.99,60.1c9.39,0,17.29,7.26,17.29,16.87s-7.9,16.65-17.29,16.65-17.29-7.05-17.29-16.65,7.9-16.87,17.29-16.87Zm-13.02,49.53h26.05v113.15h-26.05v-113.15Z"/>
      <path class="cls-4" d="m653.46,228.76h27.33c2.78,10.89,14.09,17.93,29.04,17.93,19,0,30.96-11.53,30.96-29.04v-14.94c-7.26,10.89-20.92,17.72-36.72,17.72-29.25,0-52.31-23.48-52.31-56.36s23.06-56.15,52.31-56.15c16.01,0,29.68,6.83,36.94,17.93v-16.23h25.62v108.03c0,30.32-21.99,50.81-57.64,50.81-31.38,0-52.73-15.8-55.51-39.71Zm56.15-31.38c18.36,0,31.38-13.66,31.38-33.3s-13.02-33.3-31.38-33.3-31.38,13.66-31.38,33.3,13.02,33.3,31.38,33.3Z"/>
      <path class="cls-4" d="m778.14,166.21c0-34.8,23.27-58.28,52.52-58.28,15.58,0,29.03,6.62,36.51,17.29v-15.59h26.05v113.15h-26.05v-15.58c-7.47,10.67-20.92,17.29-36.51,17.29-29.25,0-52.52-23.48-52.52-58.28Zm58.07,35.23c18.36,0,31.6-13.88,31.6-35.23s-13.24-35.23-31.6-35.23-31.6,13.88-31.6,35.23,13.24,35.23,31.6,35.23Z"/>
      <path class="cls-4" d="m919.05,189.69v-57.43h-18.79v-22.63h10.46c5.98,0,8.33-2.35,8.33-8.33v-19.43h26.05v27.75h30.96v22.63h-30.96v52.73c0,11.1,3.84,14.94,14.73,14.94h16.23v22.84h-23.91c-21.99,0-33.09-11.32-33.09-33.09Z"/>
      <path class="cls-4" d="m978.19,167.06c0-35.23,25.62-59.14,58.71-59.14,31.17,0,55.08,21.56,55.08,55.3,0,3.2-.21,6.19-.43,8.97h-87.75c2.35,20.28,16.01,30.53,33.52,30.53,13.02,0,23.48-5.76,27.97-15.16h25.19c-6.19,23.06-27.11,36.94-53.8,36.94-34.37,0-58.5-23.06-58.5-57.43Zm87.75-13.45c-2.78-16.23-13.88-24.13-29.03-24.13s-27.54,8.54-31.81,24.13h60.85Z"/>
    </g>
  </g>
</svg>