<?xml version="1.0" encoding="utf-8"?>
<!-- Generator: Adobe Illustrator 27.3.1, SVG Export Plug-In . SVG Version: 6.00 Build 0)  -->
<svg version="1.1" id="_01" xmlns="http://www.w3.org/2000/svg" xmlns:xlink="http://www.w3.org/1999/xlink" x="0px" y="0px"
	 viewBox="0 0 4680 3120" style="enable-background:new 0 0 4680 3120;" xml:space="preserve">
<style type="text/css">
	.st0{fill:#C6C5EF;}
	.st1{fill:#000644;}
	.st2{fill:#FFFFFF;}
	.st3{clip-path:url(#SVGID_00000035506154849179493390000014021260005283505326_);}
	.st4{fill:#D7E1FC;}
	.st5{fill:#5C72A3;}
	.st6{fill:#5A6499;}
	.st7{fill:#59FFFF;}
	.st8{opacity:0.3;}
	.st9{fill:#E1FFFE;}
	.st10{opacity:0.44;}
	.st11{fill:#D3D7E5;}
	.st12{fill:#2C3576;}
	.st13{fill:#8D95B5;}
	.st14{clip-path:url(#SVGID_00000156581391751041794180000013221431235981288356_);}
	.st15{fill:#5F699E;}
	.st16{fill:#5362A5;}
	.st17{clip-path:url(#SVGID_00000039815638650411346410000013040587249900298387_);}
	.st18{clip-path:url(#SVGID_00000158008662231794715880000007263021141518721212_);}
	.st19{clip-path:url(#SVGID_00000100378487707101399230000001132464759651947164_);}
	.st20{fill:#5EFCFB;}
	.st21{clip-path:url(#SVGID_00000176753932659612465240000015324537444592863367_);}
	.st22{fill:#D7FFFC;}
	.st23{opacity:0.38;}
	.st24{fill:#F4E4D9;}
	.st25{opacity:0.7;}
	.st26{clip-path:url(#SVGID_00000089554333986770404800000015304686323816139908_);}
	.st27{fill:#344D8C;}
	.st28{clip-path:url(#SVGID_00000032641915863547478840000013509274179397150107_);}
	.st29{fill:#1F2A5E;}
	.st30{fill:#91A3D8;}
	.st31{clip-path:url(#SVGID_00000036941792189853540560000008788008975113425324_);}
	.st32{opacity:0.74;}
	.st33{fill:#657DBA;}
	.st34{clip-path:url(#SVGID_00000111158820419365467740000004369575196914477484_);}
	.st35{fill:#CED9F4;}
	.st36{opacity:0.64;}
	.st37{fill:#A5B6E5;}
	.st38{fill:#F5FFFE;}
	.st39{fill:#B9ACE5;}
	.st40{clip-path:url(#SVGID_00000117677049473371385320000002443526248601643401_);}
	.st41{fill:#41396B;}
	.st42{fill:#8D7FD3;}
	.st43{clip-path:url(#SVGID_00000145056091396254446060000004280045522437816449_);}
	.st44{fill:#7C5FD6;}
	.st45{fill:#A785F9;}
	.st46{clip-path:url(#SVGID_00000121263599562606387510000007869936282954123655_);}
	.st47{fill:#2B1A72;}
	.st48{clip-path:url(#SVGID_00000123425823445423319840000004709081076863823773_);}
	.st49{clip-path:url(#SVGID_00000103242186160612782550000006285843769358119091_);}
	.st50{fill:#7925A0;}
	.st51{clip-path:url(#SVGID_00000119813394806839627730000015386077286213272723_);}
	.st52{opacity:0.33;}
	.st53{fill:#020A33;}
	.st54{opacity:0.28;}
	.st55{fill:#9FF4FB;}
	.st56{clip-path:url(#SVGID_00000150792444434745281260000014992687686397409676_);}
	.st57{fill:#4D648E;}
	.st58{opacity:0.49;}
	.st59{fill:#FF9885;}
	.st60{fill:#472768;}
	.st61{clip-path:url(#SVGID_00000038397228253462505300000014008223153505041336_);}
	.st62{fill:#27123A;}
	.st63{clip-path:url(#SVGID_00000081606271959082279440000016692974087789498796_);}
	.st64{fill:#703A9B;}
	.st65{clip-path:url(#SVGID_00000136383453922373324250000017845347935896257421_);}
	.st66{fill:#FDA949;}
	.st67{clip-path:url(#SVGID_00000165942753784867065910000006201894651707569288_);}
	.st68{fill:#E08122;}
	.st69{fill:#FF674B;}
	.st70{clip-path:url(#SVGID_00000070107263374588506930000017889206916426869173_);}
	.st71{opacity:0.63;}
	.st72{fill:#F4675D;}
	.st73{fill:#FF7D6C;}
	.st74{clip-path:url(#SVGID_00000000925708703337723970000016917878856590816428_);}
	.st75{clip-path:url(#SVGID_00000142174708064618809560000007770480520057558418_);}
	.st76{clip-path:url(#SVGID_00000108299366640848704630000017852487871736404377_);}
	.st77{fill:#D1CEEF;}
	.st78{fill:#F0F0FC;}
	.st79{clip-path:url(#SVGID_00000152266138755565195270000006725569065588911268_);}
	.st80{fill:#FFDFC0;}
	.st81{fill:#A69FCE;}
	.st82{clip-path:url(#SVGID_00000125592501447865361880000016027870586627965825_);}
	.st83{fill:#8580B2;}
	.st84{clip-path:url(#SVGID_00000162353361529000151660000011498360509849805700_);}
	.st85{fill:#353268;}
	.st86{fill:#839FCC;}
	.st87{opacity:0.62;}
	.st88{clip-path:url(#SVGID_00000068649539763639872630000009672777348596250530_);}
	.st89{fill:#606CA0;}
	.st90{clip-path:url(#SVGID_00000160894489854462850880000016426320735194768560_);}
	.st91{opacity:0.57;}
	.st92{fill:#F77E6D;}
	.st93{clip-path:url(#SVGID_00000016788024414610997110000006482873159070128262_);}
	.st94{clip-path:url(#SVGID_00000160888675184686902760000017859892855574693300_);}
	.st95{opacity:0.47;}
</style>
<path class="st0" d="M3269.1,856C2842.3,731.1,2648,521,1955.8,481.5S902.7,917.4,912.1,1314.4c14.7,619,791.7,847.4,1582.1,882.6
	c790.4,35.3,1175-196.5,1238.7-517.3S3695.9,980.8,3269.1,856z"/>
<path class="st1" d="M2530.9,1218.6c-26.4-49.1-42.5-113.1-48.1-190.2c-9.4-131.9,15.9-257.9,16.2-259.2l-9.6-2
	c-0.3,1.3-25.9,128.4-16.4,261.7c5.6,78.6,22.1,143.9,49.2,194.2c34.1,63.4,84.9,103.1,150.9,117.7l2.1-9.5
	C2612.2,1317.3,2563.6,1279.4,2530.9,1218.6z"/>
<polygon class="st1" points="2421.5,966.1 2416.7,965.3 2421.5,966.1 "/>
<path class="st1" d="M2436.9,1092.3c-24-65.1-15.4-125.5-15.3-126.2l-4.8-0.7l-4.8-0.7c-0.4,2.5-9.1,63.2,15.7,130.7
	c14.6,39.8,37.9,73.5,69.2,100.3c39,33.3,90.5,55.8,153.1,66.8l1.7-9.6c-60.8-10.7-110.6-32.4-148.2-64.4
	C2473.2,1162.7,2450.9,1130.4,2436.9,1092.3z"/>
<path class="st1" d="M2505.7,1467.5c260.5,139.7,447.4,6,447.4,6s-67.5-43.3-218.9-42.4S2505.7,1467.5,2505.7,1467.5z"/>
<path class="st2" d="M2726.4,1477.6c100.9,0.9,139.9-33.5,168-29.9c29.6,3.7,107.8,14.2,160.8,109.4
	c61,109.5,98.3,243.8,142.8,476.8s-10.9,544.1-10.9,544.1l-776.9,4.7c0,0-108.9-356.8-113.6-695.8s120.8-410.6,200.1-427.2
	S2594.5,1476.3,2726.4,1477.6z"/>
<g>
	<defs>
		<path id="SVGID_1_" d="M2726.4,1477.6c100.9,0.9,139.9-33.5,168-29.9c29.6,3.7,107.8,14.2,160.8,109.4
			c61,109.5,98.3,243.8,142.8,476.8s-10.9,544.1-10.9,544.1l-776.9,4.7c0,0-108.9-356.8-113.6-695.8s120.8-410.6,200.1-427.2
			S2594.5,1476.3,2726.4,1477.6z"/>
	</defs>
	<clipPath id="SVGID_00000155868887030694760790000002000904975145270428_">
		<use xlink:href="#SVGID_1_"  style="overflow:visible;"/>
	</clipPath>
	<g style="clip-path:url(#SVGID_00000155868887030694760790000002000904975145270428_);">
		<path class="st4" d="M3117.5,1631.9c-9.4-1.3-91.2,42.3-229.7,52.5c-138.5,10.2-119.5,47.8-85.9,260.2s91.2,739.7,114.8,747.4
			c8.1,2.7,386.9-96.5,397.5-120.8c10.6-24.3,109.5-579.2,98.5-624.9C3401.7,1900.7,3126.9,1633.2,3117.5,1631.9z"/>
		<path class="st5" d="M3266.7,1770.3c-32.8-33.5-68.7-69-98.5-97.4c-45.6-43.4-48.7-43.9-50.3-44.1c-3-0.4-8.2,1.3-22.6,6.6
			c-34.1,12.4-105.1,38.2-207.8,45.9c-27.8,2.1-47.8,5.1-62.9,9.7c-16.8,5.1-28.3,12.2-36.2,22.2c-22.8,28.9-14.4,80,2.2,181.7
			c2.6,15.8,5.3,32.2,8.1,50.1c11.3,71.2,25.1,176.7,39.7,288.4c14.4,109.7,29.2,223,42.5,309.7c20.8,136.3,28.9,149.7,34.8,151.7
			l0,0c0.4,0.1,0.9,0.2,1.3,0.2c3.2,0,14.6-1.9,64.5-14.5c40.4-10.2,89.2-23.3,133.9-36c54.3-15.4,100.8-29.6,134.4-41.1
			c55.9-19.1,65.3-26.7,67.3-31.2c5.5-12.6,33-158.1,57.6-305.1c14.6-87.4,47.9-293.6,41.1-321.7
			C3409.2,1918.8,3319.5,1824.3,3266.7,1770.3z M3368.5,2266.3c-26.4,157.8-52.4,292.8-57.1,303.7c-0.7,1.7-7.4,8.5-62.5,27.4
			c-33,11.3-78.7,25.2-132.3,40.5c-97.1,27.6-189.4,50.5-198.9,51c-1.4-1.3-5.4-8.1-12.8-43.5c-5.2-24.9-11.1-59.7-18.2-106.2
			c-13.1-86.2-27.8-198.1-41.9-306.4c-14.6-111.8-28.5-217.3-39.7-288.6c-2.8-17.9-5.5-34.3-8.1-50.1
			c-15.8-96.8-24.6-150.1-3.5-176.9c13.6-17.3,40.1-25.6,94.6-29.6c103.6-7.7,175.1-33.7,209.5-46.2c8.8-3.2,17.1-6.2,19.4-6.3
			c7.7,4.3,75.8,68.4,147.7,141.9c87.8,89.8,140.7,151.8,145.2,170.1C3414.2,1965.8,3398.8,2085.1,3368.5,2266.3L3368.5,2266.3z"/>
		
			<ellipse transform="matrix(0.9731 -0.2303 0.2303 0.9731 -338.8195 759.8843)" class="st6" cx="3085.6" cy="1831.3" rx="72.5" ry="147.5"/>
		
			<ellipse transform="matrix(0.9731 -0.2303 0.2303 0.9731 -338.8217 759.8847)" class="st7" cx="3085.6" cy="1831.3" rx="42.1" ry="85.7"/>
		<g class="st8">
			
				<ellipse transform="matrix(0.9731 -0.2303 0.2303 0.9731 -339.1812 756.9528)" class="st9" cx="3072.8" cy="1831.4" rx="26" ry="52.9"/>
		</g>
		<path class="st7" d="M3282.4,1999.1c-1.8-9.6-11-16-20.6-14.3l-192.1,35.1c-9.6,1.8-16,11-14.2,20.7c1.8,9.6,11,16,20.7,14.2
			l192.1-35.1c9.6-1.8,16-11,14.3-20.6L3282.4,1999.1z"/>
		<path class="st7" d="M3296.5,2061.8c-1.8-9.6-11-16-20.7-14.3c0,0,0,0,0,0l-192.1,35.1c-9.6,1.8-16,11-14.3,20.7
			c1.8,9.6,11,16,20.7,14.3l0,0l192.1-35.1C3291.8,2080.7,3298.2,2071.5,3296.5,2061.8L3296.5,2061.8z"/>
		<path class="st7" d="M3310.5,2124.6c-1.8-9.6-11-16-20.7-14.3l-192.1,35.1c-9.6,1.8-16,11-14.3,20.7c1.8,9.6,11,16,20.7,14.3l0,0
			l192.1-35.1C3305.9,2143.5,3312.3,2134.2,3310.5,2124.6C3310.5,2124.6,3310.5,2124.6,3310.5,2124.6L3310.5,2124.6z"/>
		<g class="st10">
			<path class="st11" d="M2297.3,1547.8c-68.1,25-80.2,287.3-79.6,377.4c0.6,90.1,231.1,736,231.1,736s431.4-19,445.1-19.1
				c13.7-0.1-302.6-1265.4-313.6-1279C2580.2,1363.1,2365.4,1522.8,2297.3,1547.8z"/>
		</g>
	</g>
</g>
<path class="st12" d="M2828.9,1234.8l-202.6,1.2c-6.1,0-11.1,2.1-11.1,4.5l0.1,20.1c0,2.5,4.9,4.4,11,4.4l202.7-0.4
	c6.2,0,11.2-2.1,11.2-4.5l-0.1-20.9C2840,1236.8,2835.1,1234.8,2828.9,1234.8z"/>
<path class="st13" d="M2840.2,1163.3l-226.3,3.3c-6.8,0.1-12.3,4.9-12.2,10.8l0.3,48.4c0,5.9,5.6,10.7,12.4,10.7l226.3-1.4
	c6.9,0,12.4-4.9,12.3-10.8l-0.3-50.4C2852.8,1168,2847.1,1163.2,2840.2,1163.3z"/>
<path class="st12" d="M2829.5,1328.1l-202.7,1.2c-6.1,0-11.1,2.1-11.1,4.5l0.1,20.1c0,2.4,4.9,4.4,11,4.4l202.6-0.4
	c6.2,0,11.2-2.1,11.2-4.5l-0.1-20.9C2840.6,1330,2835.6,1328.1,2829.5,1328.1z"/>
<path class="st13" d="M2840.8,1256.6l-226.3,3.3c-6.8,0.1-12.3,4.9-12.2,10.8l0.3,48.4c0,5.9,5.6,10.7,12.4,10.7l226.3-1.4
	c6.9,0,12.4-4.9,12.3-10.8l-0.3-50.3C2853.3,1261.3,2847.7,1256.5,2840.8,1256.6z"/>
<path class="st12" d="M2830,1421.4l-202.6,1.2c-6.1,0-11.1,2.1-11.1,4.5l0.1,20.1c0,2.5,4.9,4.4,11,4.4l202.7-0.4
	c6.2,0,11.2-2.1,11.2-4.5l-0.1-20.9C2841.2,1423.3,2836.2,1421.3,2830,1421.4z"/>
<path class="st13" d="M2841.3,1349.9l-226.3,3.3c-6.8,0.1-12.3,4.9-12.2,10.8l0.3,48.4c0,5.9,5.6,10.7,12.4,10.7l226.3-1.4
	c6.9,0,12.4-4.9,12.3-10.8l-0.3-50.3C2853.9,1354.6,2848.2,1349.8,2841.3,1349.9z"/>
<path class="st1" d="M3093.9,627.1c0,0-24.8-89.3-158.8-127.5c-134.1-38.2-418.6-59.8-506.8,175.3
	c-91.7,244.1,14.7,421.7,153.6,488.1s288.1,25.2,288.1,25.2L3093.9,627.1z"/>
<g>
	<defs>
		<path id="SVGID_00000042012000139923687550000015578090955400340635_" d="M3093.9,627.1c0,0-24.8-89.3-158.8-127.5
			c-134.1-38.2-418.6-59.8-506.8,175.3c-91.7,244.1,14.7,421.7,153.6,488.1s288.1,25.2,288.1,25.2L3093.9,627.1z"/>
	</defs>
	<clipPath id="SVGID_00000090998385660520599870000007843672210880128155_">
		<use xlink:href="#SVGID_00000042012000139923687550000015578090955400340635_"  style="overflow:visible;"/>
	</clipPath>
	<g style="clip-path:url(#SVGID_00000090998385660520599870000007843672210880128155_);">
		<path class="st12" d="M2545.1,569.4c0,0-79.5-100.8-85.9-117s-108.9,80.5-149,133.6s-26.6,347.3-25.7,355.3
			c0.9,8.1,244.2,38,244.2,38l9.3-107.7c9.2-107.7-51.7-86.7-46.6-149.5C2496.3,659.4,2545.1,569.4,2545.1,569.4z"/>
		<path class="st15" d="M2462.5,451.1c-0.9-2.2-2.8-3.7-5.2-4c-11.5-1.5-43.6,25.8-68.5,49.1c-31.7,29.6-63.7,64-81.5,87.7
			c-17.2,22.8-26.9,88.9-28.9,196.6c-1.5,80,2,156.7,2.6,161.2c0.4,3.1,3.3,4.6,13.5,7c6.5,1.5,15.9,3.4,28,5.4
			c20.3,3.5,48.6,7.8,84,12.7c60.3,8.4,121.2,15.9,121.8,16l3.7,0.5l9.5-111.4c5.4-62.7-12.4-82.8-28.1-100.5
			c-11.5-13-20.6-23.4-18.6-49c4.9-61.3,52.9-150.5,53.4-151.4l1.1-2l-1.4-1.8C2525.8,539.2,2467.5,463.9,2462.5,451.1z
			 M2516.8,620.8c-17.2,40.6-27,74.6-29,101.1c-2.3,28.7,8.7,41.1,20.3,54.3c14.7,16.7,31.4,35.6,26.3,95.2l-8.9,104
			c-87-10.7-223-29.3-237.6-35.8c-0.8-11.5-3.8-83.6-2.4-158.9c2-104.7,11.5-171.3,27.5-192.5c17.8-23.6,49.8-58,81.5-87.5
			c15.5-14.5,29.6-26.5,40.6-34.7c14.6-10.8,19.7-11.8,20.9-11.9c7.2,16.6,73.8,101.6,84.8,115.6
			C2537.6,576,2527.3,595.9,2516.8,620.8L2516.8,620.8z"/>
		<path class="st16" d="M2699.6,388.6l-267,124l323.7,360l207-38.9c0,0,257.7-328.5,260.3-339.3
			C3226.3,483.6,2699.6,388.6,2699.6,388.6z"/>
		<g class="st8">
			<path class="st2" d="M2677.6,526c-28.4-25.4-175.6,20.4-199.6,137.1c-4.6,22.2,12.3,34.9,67.1-36.1
				C2599.7,556,2706,551.4,2677.6,526z"/>
		</g>
		<g class="st8">
			
				<ellipse transform="matrix(0.9719 -0.2356 0.2356 0.9719 -46.4918 658.3523)" class="st2" cx="2732.1" cy="523.8" rx="22.9" ry="22.9"/>
		</g>
		<path class="st1" d="M2314,926.4c4.1,8,405.2,36.6,405.2,36.6l133.3,236c0,0,52.8,48.1-60.3,46.1s-294.6-0.9-344.6-32.9
			c-50-32-155.8-161.9-155.8-161.9L2314,926.4z"/>
		<g>
			<defs>
				<path id="SVGID_00000141426133413533619960000003013147616877691292_" d="M2314,926.4c4.1,8,405.2,36.6,405.2,36.6l133.3,236
					c0,0,52.8,48.1-60.3,46.1s-294.6-0.9-344.6-32.9c-50-32-155.8-161.9-155.8-161.9L2314,926.4z"/>
			</defs>
			<clipPath id="SVGID_00000145754762659007461740000003301951051403059337_">
				<use xlink:href="#SVGID_00000141426133413533619960000003013147616877691292_"  style="overflow:visible;"/>
			</clipPath>
			<g style="clip-path:url(#SVGID_00000145754762659007461740000003301951051403059337_);">
				<path class="st12" d="M2545,1066.3c-20.8-32.2-13.7-115.2-13.7-115.2l-11.4-25.9l-274.8-57.5c0,0,156.7,180.7,157.6,183.4
					c0.9,2.7,159.6,138.1,159.6,138.1l240.6,33.5c0,0,10.6-23.4-1.4-86.1C2659,1164.3,2565.8,1098.5,2545,1066.3z"/>
				<path class="st15" d="M2405.9,1049.6C2405.9,1049.6,2405.9,1049.6,2405.9,1049.6L2405.9,1049.6z"/>
				<path class="st15" d="M2804.3,1132.3l-3.5,0.7c-138.5,27-231.6-35.8-252.8-68.6c-19.9-30.8-13.2-112.1-13.1-112.9l0.1-0.9
					l-12.5-28.4L2235.5,862l6.9,8c42.5,49,153.6,177.3,157.3,182.8c-0.1-0.1-0.1-0.2-0.2-0.3c0.8,1.6,6.2,6.9,81.1,71.3
					c39.3,33.8,79.1,67.7,79.5,68l0.8,0.7l244.2,34l1.1-2.4c0.5-1,11-25.1-1.2-88.2L2804.3,1132.3z M2800.5,1218.7l-236.7-33
					c-61.7-52.7-154.3-132.1-158.3-136.8c0.2,0.2,0.3,0.4,0.4,0.7l0,0.1c0,0,0-0.1,0-0.1c-0.7-1.5-6.4-8.6-79.7-93.6
					c-29.2-33.8-58.6-67.7-71.6-82.7l262.7,55l10.3,23.4c-1.1,15-1.4,30-0.9,45.1c1.1,33.5,6.2,57.6,15.2,71.4
					c10.4,16.1,38.8,41.2,84.3,59c25.7,10,63,19.8,110,19.5c20.9-0.2,41.7-2.2,62.3-6C2806.3,1182.8,2803.6,1208.6,2800.5,1218.7
					L2800.5,1218.7z"/>
			</g>
		</g>
		<path class="st1" d="M3084.7,551.7c-17.7,5.6-132.4,11.7-196.5,21.7c-64.1,10-177.8,173.1-163.2,336.9
			c123.6,114,163.8-7.8,181.3-47.5c17.5-39.7,132.4-234.3,163.9-214c31.5,20.3,69.7,16,66.9-1.7
			C3134.4,629.3,3084.7,551.7,3084.7,551.7z"/>
	</g>
</g>
<path class="st2" d="M2881.5,638.6c53.7-42,131.1-10.2,174.8-15.9c43.7-5.7,83.4-15.3,98.5,90c15.1,105.3-5.9,129,7.9,172.3
	c13.7,43.2,71.5,104.4,75.5,127c4,22.6-46.2,45.6-52.8,50.3s-5.3,93.7-29,171.1c-23.7,77.4-77.3,62.1-130.4,54.3
	c-53.1-7.8-167.5-65.7-192.6-99.9c-25.2-34.2-25.7-58.8-34.9-120.2S2768.1,727.3,2881.5,638.6z"/>
<g>
	<defs>
		<path id="SVGID_00000157298710604716034320000014868463859998071701_" d="M2881.5,638.6c53.7-42,131.1-10.2,174.8-15.9
			c43.7-5.7,83.4-15.3,98.5,90c15.1,105.3-5.9,129,7.9,172.3c13.7,43.2,71.5,104.4,75.5,127c4,22.6-46.2,45.6-52.8,50.3
			s-5.3,93.7-29,171.1c-23.7,77.4-77.3,62.1-130.4,54.3c-53.1-7.8-167.5-65.7-192.6-99.9c-25.2-34.2-25.7-58.8-34.9-120.2
			S2768.1,727.3,2881.5,638.6z"/>
	</defs>
	<clipPath id="SVGID_00000039127588725770092730000004524696748183351181_">
		<use xlink:href="#SVGID_00000157298710604716034320000014868463859998071701_"  style="overflow:visible;"/>
	</clipPath>
	<g style="clip-path:url(#SVGID_00000039127588725770092730000004524696748183351181_);">
		<path class="st1" d="M3044.8,786c-92.9-0.2-120.3-13.6-122.2,22.9c-1.9,36.4-6.6,112.2,12.2,123.8c18.8,11.6,149.1,6.1,176.5,4.4
			s22.3-54.8,54.3-56.5c3.2-45.3,8.8-103.1,8.8-103.1S3137.7,786.2,3044.8,786z"/>
		<path class="st6" d="M3165.8,792.8c0,0-34.3,8.3-81.9,8.6c-47.6,0.3-113.2-1.9-126-2.6c-12.8-0.7-20,0.9-19.1,29.8
			s-3.9,88.2,6.5,92.8s69.3,7.4,113.7,4.3c44.5-3.1,52.8,0.2,65.7-27.5c12.8-27.7,39.1-34.1,39.1-34.1L3165.8,792.8z"/>
		<g>
			<defs>
				<path id="SVGID_00000127003177645722637200000012703983642395727782_" d="M3165.8,792.8c0,0-34.3,8.3-81.9,8.6
					c-47.6,0.3-113.2-1.9-126-2.6c-12.8-0.7-20,0.9-19.1,29.8s-3.9,88.2,6.5,92.8s69.3,7.4,113.7,4.3c44.5-3.1,52.8,0.2,65.7-27.5
					c12.8-27.7,39.1-34.1,39.1-34.1L3165.8,792.8z"/>
			</defs>
			<clipPath id="SVGID_00000062180650113088398650000011352943568559628692_">
				<use xlink:href="#SVGID_00000127003177645722637200000012703983642395727782_"  style="overflow:visible;"/>
			</clipPath>
			<g style="clip-path:url(#SVGID_00000062180650113088398650000011352943568559628692_);">
				
					<ellipse transform="matrix(1 -6.032859e-03 6.032859e-03 1 -5.1355 18.4073)" class="st20" cx="3048.6" cy="860.4" rx="33.7" ry="41.2"/>
				<g>
					<defs>
						
							<ellipse id="SVGID_00000029726572497103640630000005587536165290645147_" transform="matrix(1 -6.032859e-03 6.032859e-03 1 -5.1355 18.4073)" cx="3048.6" cy="860.4" rx="33.7" ry="41.2"/>
					</defs>
					<clipPath id="SVGID_00000131341959526631977620000006192102602705107873_">
						<use xlink:href="#SVGID_00000029726572497103640630000005587536165290645147_"  style="overflow:visible;"/>
					</clipPath>
					<g style="clip-path:url(#SVGID_00000131341959526631977620000006192102602705107873_);">
						
							<ellipse transform="matrix(1 -6.032859e-03 6.032859e-03 1 -5.1323 18.4931)" class="st22" cx="3062.8" cy="860" rx="27.3" ry="30.7"/>
					</g>
				</g>
				<g class="st23">
					<polygon class="st2" points="2936.8,965.6 2994.6,965.3 3091.1,779 3029.2,778 					"/>
				</g>
				<g class="st23">
					<polygon class="st2" points="3036.4,965 3062.2,964.9 3158.7,778.6 3128.8,777.4 					"/>
				</g>
			</g>
		</g>
		<path class="st6" d="M3048.2,1130.7c9.5,10.9,18.1,17.5,30.6,18.6s98.8,1,98.8,1l5.4-19.6
			C3182.8,1130.7,3056.3,1129.1,3048.2,1130.7z"/>
		<polygon class="st6" points="3171.8,1196.2 3173.6,1184.9 3093.7,1188.1 		"/>
		<path class="st4" d="M2767.8,950c0,0-48,194.7-43.1,234.5c4.9,39.8,53.1,69.9,53.1,69.9l219.3,52.5c0,0-30.6-224.7-64.8-261.9
			S2767.8,950,2767.8,950z"/>
		<path class="st5" d="M2933.7,1043.8c-34-37.1-159.8-93.1-165.1-95.5l-1.9-0.9l-0.5,2c-2,8-48,195.4-43.1,235.1
			c5,40.2,51.9,69.9,54,71.2l0.2,0.2l222.1,53.3l-0.3-2.6C2997.7,1297.5,2967.8,1081.1,2933.7,1043.8z M2778.6,1252.8
			c-3.6-2.4-47.5-31.5-52.1-68.5c-4.5-36.8,37.4-210.7,42.6-231.8c16.3,7.3,130.7,59.6,162,93.7c13.8,15,29.2,64.9,44.8,144.1
			c10.3,52.8,17.6,102.6,19.2,114.3L2778.6,1252.8z"/>
		<circle class="st24" cx="2855.1" cy="729.7" r="15.2"/>
		<path class="st5" d="M2854.9,712.6c-9.4,0.1-16.9,7.7-16.9,17.1c0.1,9.4,7.7,16.9,17.1,16.9c9.4-0.1,16.9-7.7,16.9-17.1
			C2872,720.1,2864.3,712.6,2854.9,712.6C2854.9,712.6,2854.9,712.6,2854.9,712.6z M2855.1,743.1c-7.4,0-13.5-6-13.5-13.4
			c0-7.4,6-13.5,13.4-13.5c7.4,0,13.5,5.9,13.5,13.4C2868.5,737,2862.5,743.1,2855.1,743.1L2855.1,743.1z"/>
		<circle class="st24" cx="2890.1" cy="669" r="15.2"/>
		<path class="st5" d="M2890,652c-9.4,0.1-16.9,7.7-16.9,17.1c0.1,9.4,7.7,16.9,17.1,16.9c9.4-0.1,16.9-7.7,16.9-17.1
			C2907.1,659.5,2899.4,652,2890,652z M2890.2,682.5c-7.4,0-13.5-6-13.5-13.4c0-7.4,6-13.5,13.4-13.5c7.4,0,13.5,5.9,13.5,13.4
			C2903.6,676.4,2897.6,682.5,2890.2,682.5z"/>
		<path class="st4" d="M3237.5,981.6c-3.2-2.6,6.4,38.9-40.7,51.5c-47,12.6-38.1,18-5.3,30.8c44.3-12.6,45.6-23.5,49-26.9
			S3267.7,1006,3237.5,981.6z"/>
	</g>
</g>
<ellipse transform="matrix(0.7071 -0.7071 0.7071 0.7071 117.5012 2212.1931)" class="st1" cx="2729.1" cy="964.3" rx="122.4" ry="122.4"/>
<circle class="st6" cx="2698.6" cy="964.5" r="122.4"/>
<circle class="st7" cx="2698.6" cy="964.5" r="67.3"/>
<g class="st25">
	
		<ellipse transform="matrix(0.9992 -4.092804e-02 4.092804e-02 0.9992 -37.1952 111.8902)" class="st22" cx="2714.1" cy="964.4" rx="43.1" ry="43.1"/>
</g>
<path class="st16" d="M2464.8,1691c38.6-0.2,201.8-8.4,201.8-8.4s62,458,136.4,895.2l-391.1,2.4c0,0-83.4-699.3-95.1-864.8
	C2376.7,1723.9,2464.8,1691,2464.8,1691z"/>
<g>
	<defs>
		<path id="SVGID_00000065777930739939371630000003330468450746824895_" d="M2464.8,1691c38.6-0.2,201.8-8.4,201.8-8.4
			s62,458,136.4,895.2l-391.1,2.4c0,0-83.4-699.3-95.1-864.8C2376.7,1723.9,2464.8,1691,2464.8,1691z"/>
	</defs>
	<clipPath id="SVGID_00000015320208495966015620000007413276738504373159_">
		<use xlink:href="#SVGID_00000065777930739939371630000003330468450746824895_"  style="overflow:visible;"/>
	</clipPath>
	<g style="clip-path:url(#SVGID_00000015320208495966015620000007413276738504373159_);">
		<path class="st27" d="M2330,1532.6c-4.1,0-64.7,132.9-64.7,132.9l65.8,943.2l279.9-1.7c0,0-171.7-1077.8-171.8-1084.6
			C2439.2,1522.4,2334.1,1532.6,2330,1532.6z"/>
	</g>
</g>
<circle class="st1" cx="2511.3" cy="1700.8" r="157.2"/>
<circle class="st12" cx="2472.2" cy="1701.1" r="157.2"/>
<g>
	<defs>
		<circle id="SVGID_00000077304926973446586180000016737407297277891006_" cx="2472.2" cy="1701.1" r="157.2"/>
	</defs>
	<clipPath id="SVGID_00000145765464498488744730000008515397006611087803_">
		<use xlink:href="#SVGID_00000077304926973446586180000016737407297277891006_"  style="overflow:visible;"/>
	</clipPath>
	<g style="clip-path:url(#SVGID_00000145765464498488744730000008515397006611087803_);">
		
			<rect x="2251.6" y="1457.3" transform="matrix(1 -6.032859e-03 6.032859e-03 1 -9.9965 14.3016)" class="st29" width="228.1" height="413.8"/>
	</g>
</g>
<ellipse transform="matrix(0.9992 -4.092804e-02 4.092804e-02 0.9992 -67.5508 102.6066)" class="st7" cx="2472.2" cy="1701.1" rx="86.4" ry="86.4"/>
<g class="st25">
	<circle class="st22" cx="2472.2" cy="1701.1" r="60.9"/>
</g>
<path class="st1" d="M1175.5,2073.2c-26.1-33.7-48.4-70.2-66.2-109c-21.5-47.2-35.2-96-40.7-145.3c-23.8-215-13-354.5-12.9-355.9
	l-6.2-0.5c-0.1,1.4-11,141.4,12.9,357.1c5.6,50,19.4,99.6,41.3,147.3c18.1,39.2,40.6,76.2,67,110.2c46,59.6,89.7,92.9,90.1,93.2
	l3.8-4.9C1264.1,2165,1221,2132.1,1175.5,2073.2z"/>
<path class="st1" d="M1129.2,1887.4c-22.4-44.9-52.8-130.9-70.4-285.4c-10.5-92.6-11.4-166.8-11.4-167.5l-6.2,0.1
	c0,0.7,0.9,75.2,11.5,168.1c6.2,54.6,14.5,104.7,24.6,149.1c12.7,55.5,28.3,102.1,46.4,138.4c18.1,36.3,43.9,73.1,76.5,109.3
	c26.1,28.9,56.6,57.4,90.6,84.9c58,46.7,107,74.4,107.5,74.7l3-5.4c-0.5-0.3-49-27.7-106.6-74.1
	C1198.5,2002,1151.6,1932.3,1129.2,1887.4z"/>
<path class="st30" d="M1063.3,1449.3c18.2,46.5,164.2,1046.6,164.2,1046.6l315.7-1.9L1244.3,1423L1063.3,1449.3z"/>
<g>
	<defs>
		<path id="SVGID_00000170260928248852251000000006352676573880154509_" d="M1063.3,1449.3c18.2,46.5,164.2,1046.6,164.2,1046.6
			l315.7-1.9L1244.3,1423L1063.3,1449.3z"/>
	</defs>
	<clipPath id="SVGID_00000177446172027873612460000013047450933490999483_">
		<use xlink:href="#SVGID_00000170260928248852251000000006352676573880154509_"  style="overflow:visible;"/>
	</clipPath>
	<g style="clip-path:url(#SVGID_00000177446172027873612460000013047450933490999483_);">
		<g class="st32">
			<path class="st33" d="M1098.5,1431.7L1313,2573.9l173-1.1c5.5,0-298.3-1159.9-298.3-1159.9L1098.5,1431.7z"/>
		</g>
	</g>
</g>
<polygon class="st30" points="1105.4,1294.7 1931.7,887.9 1973.6,988.1 1147.8,1490 "/>
<g>
	<defs>
		<polygon id="SVGID_00000121245204996903701640000017336361872929549207_" points="1105.4,1294.7 1931.7,887.9 1973.6,988.1 
			1147.8,1490 		"/>
	</defs>
	<clipPath id="SVGID_00000044891402132100346050000009749476678853706679_">
		<use xlink:href="#SVGID_00000121245204996903701640000017336361872929549207_"  style="overflow:visible;"/>
	</clipPath>
	<g style="clip-path:url(#SVGID_00000044891402132100346050000009749476678853706679_);">
		<g class="st32">
			<polygon class="st33" points="1093,1417.1 1164.4,1491.4 2042.7,987.2 1991.2,916.5 			"/>
		</g>
	</g>
</g>
<ellipse transform="matrix(0.7071 -0.7071 0.7071 0.7071 -655.9304 1213.5875)" class="st35" cx="1137" cy="1398.6" rx="130.9" ry="130.9"/>
<g class="st36">
	<circle class="st2" cx="1137" cy="1398.6" r="61"/>
</g>
<polygon class="st30" points="1966.5,847.2 2052.1,912.2 2105.3,727.8 2324.7,680.1 2033.3,659.1 "/>
<polygon class="st30" points="2052.6,909.3 2032.3,1014.8 2207.6,1110.2 2397.4,919.2 2215.3,1010.9 "/>
<ellipse transform="matrix(0.7071 -0.7071 0.7071 0.7071 -76.2996 1677.0544)" class="st35" cx="1986.2" cy="930.6" rx="98.7" ry="98.7"/>
<g class="st36">
	
		<ellipse transform="matrix(0.9992 -4.092805e-02 4.092805e-02 0.9992 -36.4247 82.0725)" class="st2" cx="1986.2" cy="930.6" rx="45.9" ry="46"/>
</g>
<path class="st37" d="M1643,2477.7c-6.2-12.3-18.8-20.1-32.6-20l-465.8,2.8c-14.2,0.1-27,8.4-32.9,21.4l-34.4,76.5
	c-4.7,10.3-0.1,22.5,10.3,27.1c2.7,1.2,5.6,1.8,8.5,1.8l567.1-3.4c11.3-0.1,20.5-9.3,20.4-20.6c0-3.2-0.8-6.3-2.2-9.2L1643,2477.7z"
	/>
<g class="st25">
	<polygon class="st22" points="2122.2,1016.4 2695.3,1012.9 2792.7,659.8 2219.6,663.3 	"/>
</g>
<g class="st25">
	<path class="st38" d="M2754.5,679.8l-508.9,3.1c-3.9,0-7.4,2.5-8.5,6.3l-10.5,37.8c-1.5,5.4,2.8,10.6,8.6,10.5l509-3.1
		c3.9,0,7.4-2.5,8.5-6.3l10.5-37.8C2764.6,685,2760.3,679.7,2754.5,679.8z"/>
</g>
<g class="st25">
	<path class="st38" d="M2568.1,765.6l-355.3,2.1c-2.8,0-5.4,2.6-6.3,6.3l-9.7,37.8c-1.4,5.4,1.3,10.6,5.4,10.6l355.4-2.1
		c2.8,0,5.4-2.6,6.3-6.3l9.7-37.8C2574.8,770.8,2572.2,765.6,2568.1,765.6z"/>
</g>
<path class="st39" d="M3466.9,2529.7c0,0-28.3-158.7,49.7-392c78-233.3,334.3-429.3,334.3-429.3s37.4,290.1-76.2,537.3
	C3661.2,2492.9,3466.9,2529.7,3466.9,2529.7z"/>
<g>
	<defs>
		<path id="SVGID_00000059989076337452081690000015860118686549680522_" d="M3466.9,2529.7c0,0-28.3-158.7,49.7-392
			c78-233.3,334.3-429.3,334.3-429.3s37.4,290.1-76.2,537.3C3661.2,2492.9,3466.9,2529.7,3466.9,2529.7z"/>
	</defs>
	<clipPath id="SVGID_00000062165340607541830260000007088963714571731122_">
		<use xlink:href="#SVGID_00000059989076337452081690000015860118686549680522_"  style="overflow:visible;"/>
	</clipPath>
	<g style="clip-path:url(#SVGID_00000062165340607541830260000007088963714571731122_);">
		<path class="st41" d="M3712.3,1939.8c-4.4,7-8.7,13.9-13,21l-6.4,10.6c-2.1,3.5-4.2,7.1-6.3,10.6c-8.4,14.1-16.6,28.4-24.6,42.8
			c-4,7.2-8,14.3-11.9,21.6l-11.7,21.7l-11.4,21.9c-1.9,3.7-3.7,7.3-5.6,11l-5.6,11l-5.5,11.1l-5.3,11.1l-5.3,11.1l-2.7,5.6
			l-2.6,5.6c-14,29.8-27,60.1-39.5,90.6l-9.1,23l-2.3,5.7c-0.8,1.9-1.5,3.8-2.2,5.8l-4.4,11.5l-4.4,11.6l-2.2,5.8l-2.1,5.8
			l-8.2,23.3l-2,5.8l-1.9,5.9l-3.9,11.7l-3.9,11.7l-1.9,5.9l-1.8,5.9l-7.2,23.6l-1.8,5.9l-1.7,5.9l-3.4,11.9
			c-9,31.6-16.8,63.6-23.7,95.8c9.4-31.5,18.6-63,29.2-94.1c10.1-31.2,21.2-62.1,32.6-92.8c5.9-15.3,11.6-30.6,17.8-45.8l4.5-11.4
			c0.8-1.9,1.5-3.8,2.3-5.7l2.4-5.7l9.4-22.7c3.2-7.6,6.5-15.1,9.7-22.6l4.9-11.3l5-11.2c3.3-7.5,6.6-15,10-22.4l10.3-22.3l2.6-5.6
			l2.6-5.6l5.3-11.1l5.3-11.1l5.4-11l5.4-11c1.8-3.7,3.6-7.4,5.5-11l11-22l11.3-21.8c3.7-7.3,7.7-14.5,11.5-21.7s7.8-14.4,11.7-21.6
			s7.9-14.4,11.8-21.6c2-3.6,4-7.2,6-10.7l6.1-10.7c4-7.2,8.2-14.2,12.3-21.3c4.1-7.1,8.3-14.2,12.4-21.2s8.4-14.1,12.7-21.1
			c17-28.1,34.5-55.9,52.9-83.1c-20.5,25.7-39.3,52.8-57.7,80C3730,1912.1,3721.1,1925.9,3712.3,1939.8z"/>
	</g>
</g>
<path class="st42" d="M3573.2,2545c0,0,94.5-376.6,473.8-460.8C3952.4,2453.4,3573.2,2545,3573.2,2545z"/>
<g>
	<defs>
		<path id="SVGID_00000138569427608425923330000005547556246616676243_" d="M3573.2,2545c0,0,94.5-376.6,473.8-460.8
			C3952.4,2453.4,3573.2,2545,3573.2,2545z"/>
	</defs>
	<clipPath id="SVGID_00000159459156799563439460000013982561155949800374_">
		<use xlink:href="#SVGID_00000138569427608425923330000005547556246616676243_"  style="overflow:visible;"/>
	</clipPath>
	<g style="clip-path:url(#SVGID_00000159459156799563439460000013982561155949800374_);">
		<path class="st41" d="M3909.1,2180.1c-20.4,12.5-40.1,26-59.1,40.5c-19,14.5-37.3,29.8-55.1,45.8c-8.9,7.9-17.5,16.2-26.2,24.4
			c-8.5,8.4-17,16.8-25.2,25.4c-8.2,8.7-16.3,17.4-24.4,26.2c-4,4.4-7.9,9-11.8,13.4c-3.9,4.5-7.9,8.9-11.7,13.6l-11.4,13.8
			c-1.9,2.3-3.8,4.6-5.6,6.9l-5.5,7l-5.5,7c-1.8,2.3-3.7,4.6-5.5,7.1l-10.7,14.3c-28.5,38.1-54.6,78-78.2,119.4
			c28.4-38.2,57-75.9,86.9-112.6c30-36.6,60.9-72.3,93.7-106.3c4.1-4.3,8.1-8.6,12.3-12.7l12.5-12.5c8.4-8.2,16.8-16.5,25.5-24.6
			l6.4-6.1l6.5-6c4.4-4,8.7-8,13.1-11.9c8.8-7.8,17.8-15.5,26.8-23.1c18.1-15.1,36.8-29.6,55.9-43.4c9.6-6.9,19.4-13.5,29.3-19.9
			c5-3.2,10-6.3,15.1-9.3c5.1-3,10.2-6,15.5-8.7c-11.2,4.2-22,9.1-32.6,14.6C3929.7,2168,3919.3,2174,3909.1,2180.1z"/>
	</g>
</g>
<rect x="3237.6" y="2116.4" transform="matrix(1 -6.032859e-03 6.032859e-03 1 -12.8227 21.1716)" class="st44" width="530.8" height="39.2"/>
<rect x="3219.2" y="2072" transform="matrix(1 -6.032859e-03 6.032859e-03 1 -12.5844 21.1694)" class="st45" width="567.1" height="49"/>
<rect x="3219.6" y="2150.5" transform="matrix(1 -6.032859e-03 6.032859e-03 1 -13.0576 21.1738)" class="st45" width="567.1" height="49"/>
<g>
	<defs>
		
			<rect id="SVGID_00000128481391298883818280000002414069352384548756_" x="3219.6" y="2150.5" transform="matrix(1 -6.032859e-03 6.032859e-03 1 -13.0576 21.1738)" width="567.1" height="49"/>
	</defs>
	<clipPath id="SVGID_00000065038838988631843890000008751456644921914555_">
		<use xlink:href="#SVGID_00000128481391298883818280000002414069352384548756_"  style="overflow:visible;"/>
	</clipPath>
	<g style="clip-path:url(#SVGID_00000065038838988631843890000008751456644921914555_);">
		
			<rect x="3205.3" y="2191.5" transform="matrix(1 -6.032859e-03 6.032859e-03 1 -13.213 21.177)" class="st47" width="596.8" height="18.4"/>
	</g>
</g>
<rect x="3238.3" y="2241.8" transform="matrix(1 -6.032859e-03 6.032859e-03 1 -13.5792 21.1785)" class="st44" width="530.7" height="39.2"/>
<rect x="3219.9" y="2197.4" transform="matrix(1 -6.032859e-03 6.032859e-03 1 -13.3409 21.1763)" class="st45" width="567.1" height="49"/>
<rect x="3220.4" y="2275.9" transform="matrix(1 -6.032859e-03 6.032859e-03 1 -13.8141 21.1806)" class="st45" width="567.1" height="49"/>
<g>
	<defs>
		
			<rect id="SVGID_00000129897171726626805020000002133227001384362385_" x="3220.4" y="2275.9" transform="matrix(1 -6.032859e-03 6.032859e-03 1 -13.8141 21.1806)" width="567.1" height="49"/>
	</defs>
	<clipPath id="SVGID_00000183229891483060734950000012280064745108614833_">
		<use xlink:href="#SVGID_00000129897171726626805020000002133227001384362385_"  style="overflow:visible;"/>
	</clipPath>
	<g style="clip-path:url(#SVGID_00000183229891483060734950000012280064745108614833_);">
		
			<rect x="3206" y="2317.3" transform="matrix(1 -6.032859e-03 6.032859e-03 1 -13.9715 21.1839)" class="st47" width="596.8" height="18.4"/>
	</g>
</g>
<rect x="3239.1" y="2366.8" transform="matrix(1 -6.032859e-03 6.032859e-03 1 -14.3329 21.1853)" class="st44" width="530.8" height="39.2"/>
<rect x="3220.7" y="2322.4" transform="matrix(1 -6.032859e-03 6.032859e-03 1 -14.0946 21.1832)" class="st45" width="567.1" height="49"/>
<rect x="3221.1" y="2400.8" transform="matrix(1 -6.032859e-03 6.032859e-03 1 -14.5678 21.1874)" class="st45" width="567.1" height="49"/>
<g>
	<defs>
		
			<rect id="SVGID_00000105386500069967104500000012321085296513303457_" x="3221.1" y="2400.8" transform="matrix(1 -6.032859e-03 6.032859e-03 1 -14.5678 21.1874)" width="567.1" height="49"/>
	</defs>
	<clipPath id="SVGID_00000108282984668033334850000001976779965978299786_">
		<use xlink:href="#SVGID_00000105386500069967104500000012321085296513303457_"  style="overflow:visible;"/>
	</clipPath>
	<g style="clip-path:url(#SVGID_00000108282984668033334850000001976779965978299786_);">
		
			<rect x="3206.8" y="2441.2" transform="matrix(1 -6.032859e-03 6.032859e-03 1 -14.7191 21.1906)" class="st47" width="596.8" height="18.4"/>
	</g>
</g>
<rect x="3239.8" y="2491" transform="matrix(1 -6.032859e-03 6.032859e-03 1 -15.0825 21.1921)" class="st44" width="530.8" height="39.2"/>
<rect x="3221.4" y="2446.6" transform="matrix(1 -6.032859e-03 6.032859e-03 1 -14.8442 21.1899)" class="st45" width="567.1" height="49"/>
<rect x="3221.9" y="2525" transform="matrix(1 -6.032859e-03 6.032859e-03 1 -15.3173 21.1942)" class="st45" width="567.1" height="49"/>
<path class="st2" d="M3246.3,2085.6l-0.5,0c-4.9,0.2-8.7,4.3-8.5,9.2c0.2,4.7,4,8.4,8.6,8.5l0.5,0c4.9,0.1,9-3.7,9.1-8.6
	c0.1-4.9-3.7-9-8.6-9.1C3246.7,2085.6,3246.5,2085.6,3246.3,2085.6z"/>
<path class="st2" d="M3279,2085.4l-0.4,0c-4.9,0.2-8.7,4.3-8.5,9.2c0.2,4.7,4,8.4,8.6,8.5l0.4,0c4.9,0.1,9-3.7,9.1-8.6
	c0.1-4.9-3.7-9-8.6-9.1C3279.4,2085.4,3279.2,2085.4,3279,2085.4z"/>
<path class="st2" d="M3311.8,2085.2l-0.5,0c-4.9,0.2-8.7,4.3-8.5,9.2c0.2,4.7,4,8.4,8.6,8.5l0.5,0c4.9,0.1,9-3.7,9.1-8.6
	c0.1-4.9-3.7-9-8.6-9.1C3312.1,2085.2,3312,2085.2,3311.8,2085.2z"/>
<path class="st2" d="M3237.7,2224.7L3237.7,2224.7c0-4.9,3.9-8.9,8.8-8.9l0.5,0c4.9,0,8.9,3.9,8.9,8.8l0,0c0,4.9-3.9,8.9-8.8,8.9
	l-0.5,0C3241.8,2233.5,3237.8,2229.6,3237.7,2224.7z"/>
<path class="st2" d="M3270.5,2224.5L3270.5,2224.5c0-4.9,3.9-8.9,8.8-8.9l0.5,0c4.9,0,8.9,3.9,8.9,8.8l0,0c0,4.9-3.9,8.9-8.8,8.9
	l-0.5,0C3274.5,2233.4,3270.5,2229.4,3270.5,2224.5z"/>
<path class="st2" d="M3303.3,2224.3L3303.3,2224.3c0-4.9,3.9-8.9,8.8-8.9l0.5,0c4.9,0,8.9,3.9,8.9,8.8l0,0c0,4.9-3.9,8.9-8.8,8.9
	l-0.5,0C3307.3,2233.2,3303.3,2229.2,3303.3,2224.3z"/>
<path class="st2" d="M3238.5,2352L3238.5,2352c0-4.9,3.9-8.9,8.8-8.9l0.5,0c4.9,0,8.9,3.9,8.9,8.8l0,0c0,4.9-3.9,8.9-8.8,8.9l-0.5,0
	C3242.5,2360.8,3238.5,2356.9,3238.5,2352z"/>
<path class="st2" d="M3271.3,2351.8L3271.3,2351.8c0-4.9,3.9-8.9,8.8-8.9l0.5,0c4.9,0,8.9,3.9,8.9,8.8l0,0c0,4.9-3.9,8.9-8.8,8.9
	l-0.5,0C3275.3,2360.6,3271.3,2356.7,3271.3,2351.8z"/>
<path class="st2" d="M3304,2351.6L3304,2351.6c0-4.9,3.9-8.9,8.8-8.9l0.5,0c4.9,0,8.9,3.9,8.9,8.8l0,0c0,4.9-3.9,8.9-8.8,8.9l-0.5,0
	C3308.1,2360.4,3304.1,2356.5,3304,2351.6z"/>
<path class="st2" d="M3248.5,2468.7l-0.5,0c-4.9,0.2-8.7,4.3-8.5,9.2c0.2,4.7,4,8.4,8.6,8.5l0.5,0c4.9,0,8.9-4,8.8-8.9
	S3253.4,2468.6,3248.5,2468.7L3248.5,2468.7z"/>
<path class="st2" d="M3281.3,2468.5l-0.4,0c-4.9,0.2-8.7,4.3-8.5,9.2c0.2,4.7,4,8.4,8.6,8.5l0.4,0c4.9,0.1,9-3.7,9.1-8.6
	c0.1-4.9-3.7-9-8.6-9.1C3281.7,2468.5,3281.5,2468.5,3281.3,2468.5z"/>
<path class="st2" d="M3314.1,2468.3l-0.4,0c-4.9,0.2-8.7,4.3-8.5,9.2c0.2,4.7,4,8.4,8.6,8.5l0.5,0c4.9,0.1,9-3.7,9.1-8.6
	c0.1-4.9-3.7-9-8.6-9.1C3314.5,2468.3,3314.3,2468.3,3314.1,2468.3z"/>
<path class="st50" d="M1885.4,724c0,0,25-3.1,35.8-25.2c10.8-22.2,3.5-44.8-21.6-42.2c0.3-32.8-8.5-43.9-24.8-56.8
	c-2.3,15.5-27.2,42.8-57.5,37.6c-30.3-5.1-68.7,4.7-87.1,48.2s11.2,96.3,32.9,114c21.7,17.7,35.2,12.6,35.2,12.6L1885.4,724z"/>
<g>
	<defs>
		<path id="SVGID_00000179641960393884009800000010088499474990120072_" d="M1885.4,724c0,0,25-3.1,35.8-25.2
			c10.8-22.2,3.5-44.8-21.6-42.2c0.3-32.8-8.5-43.9-24.8-56.8c-2.3,15.5-27.2,42.8-57.5,37.6c-30.3-5.1-68.7,4.7-87.1,48.2
			s11.2,96.3,32.9,114c21.7,17.7,35.2,12.6,35.2,12.6L1885.4,724z"/>
	</defs>
	<clipPath id="SVGID_00000088828769342013886450000008397359414125510307_">
		<use xlink:href="#SVGID_00000179641960393884009800000010088499474990120072_"  style="overflow:visible;"/>
	</clipPath>
	<g style="clip-path:url(#SVGID_00000088828769342013886450000008397359414125510307_);">
		<g class="st52">
			<path class="st53" d="M1929.6,659.7c1.5,21.8-40.7,41-106.8,25.4c-66.1-15.6-41.3,24.1-75.1,36.4c-33.8,12.3-36-14.8-36-14.8
				l1,45.1c0,0,51.9,72.7,51.9,75s139.7-86.6,141-86.8C1906.9,739.7,1986,696.9,1929.6,659.7z"/>
		</g>
		<g class="st54">
			<path class="st35" d="M1745.5,670c-5.4,11.9-13.2,29.8-5.2,35.2c7.9,5.4,20.6,1.7,24.5-18.7c3.8-20.4,27.7-29.9,27.1-37.8
				C1791.1,640.9,1756.2,646.3,1745.5,670z"/>
		</g>
	</g>
</g>
<path class="st55" d="M1696.9,2111.1c0,0-14.7,8.8-19.7,20.1c-5.1,11.3-10.1,106.2-13.4,136c-3.4,29.8-22.8,47.2-53.8,57.7
	c-20.3,6.5-27.9,7.3-27.9,7.3s-57.3-23.3-64.9-86.7s1.6-106.4-12.1-145.6c-13.7-39.3,56-62.6,75.1-67.7c19.1-5.1,43.1-5.3,82.8-21.8
	C1669.7,2042.1,1696.9,2111.1,1696.9,2111.1z"/>
<g>
	<defs>
		<path id="SVGID_00000088823151686711563420000001260592275982412473_" d="M1696.9,2111.1c0,0-14.7,8.8-19.7,20.1
			c-5.1,11.3-10.1,106.2-13.4,136c-3.4,29.8-22.8,47.2-53.8,57.7c-20.3,6.5-27.9,7.3-27.9,7.3s-57.3-23.3-64.9-86.7
			s1.6-106.4-12.1-145.6c-13.7-39.3,56-62.6,75.1-67.7c19.1-5.1,43.1-5.3,82.8-21.8C1669.7,2042.1,1696.9,2111.1,1696.9,2111.1z"/>
	</defs>
	<clipPath id="SVGID_00000033332855618255524350000014354201110315136171_">
		<use xlink:href="#SVGID_00000088823151686711563420000001260592275982412473_"  style="overflow:visible;"/>
	</clipPath>
	<g style="clip-path:url(#SVGID_00000033332855618255524350000014354201110315136171_);">
		<path class="st2" d="M1515.5,2248c0,0-10.2,19.9-9.2,20.6c1,0.7,69.8,80,69.8,80s44.7,20.7,99.8-68.5
			C1619.1,2171.6,1515.5,2248,1515.5,2248z"/>
		<path class="st57" d="M1530.7,2034.2L1530.7,2034.2z"/>
		<path class="st57" d="M1552.7,2275.1c-30.3-43.1-8.3-83.8-22.8-161.2c-14.1-74.9,0-79.6,0.9-79.8c-36.9,7-43.2,39.8-42.5,42.8
			c0.7,3,5.4,69.2,3.7,67.2c-1.7-2.1,8.9,138.3,9.7,143.5c0.8,5.2,76.5,60.5,80,57.6c3.4-2.9,29.7-15.5,29.7-15.5
			S1583,2318.2,1552.7,2275.1z"/>
		<g class="st58">
			
				<ellipse transform="matrix(0.7658 -0.643 0.643 0.7658 -971.4667 1495.2428)" class="st2" cx="1567.3" cy="2081.5" rx="32.9" ry="29.1"/>
		</g>
		<path d="M1650,2130.9c-8.1-2.1-16.4-3-24.7-2.8c-1.7,0.2-3,1.7-2.8,3.4c0.2,1.6,1.5,2.8,3,2.8c0.4,0,42.5-1.7,53.2,26.5
			c0.5,1.2,1.6,2,2.9,2c0.4,0,0.7-0.1,1.1-0.2c1.6-0.6,2.4-2.4,1.8-4c0,0,0,0,0,0C1679.4,2145,1667.5,2135.4,1650,2130.9z"/>
		<path d="M1644,2159.1c-7.2-1.8-14.6-2.9-22.1-3.1c-1.7-0.1-3.2,1.3-3.2,3c-0.1,1.7,1.3,3.2,3,3.2c0.1,0,0.1,0,0.2,0
			c0.4,0,37.3,0.5,51.6,22.2c0.6,0.9,1.6,1.4,2.6,1.4c1.7,0,3.1-1.4,3.1-3.1c0-0.6-0.2-1.2-0.5-1.7
			C1672,2170.8,1660,2163.2,1644,2159.1z"/>
		<path d="M1622.5,2186.8c-1.7-0.1-3.2,1.2-3.3,2.9c-0.1,1.7,1.2,3.2,2.9,3.3c0.1,0,0.2,0,0.3,0c0.3,0,33.3,0.9,51.8,23.3
			c1.1,1.3,3.1,1.5,4.4,0.4c1.3-1.1,1.5-3.1,0.4-4.4C1658.7,2187.8,1623.9,2186.8,1622.5,2186.8z"/>
		<path class="st59" d="M1620.4,2004.7l-2,1.3c-0.7,0.6-8.6,74.4,69.6,121.1c24.8-21.6,26.1-21.5,26.1-21.5s-33.2-88.4-33.7-90.4
			C1679.8,2013.3,1653.2,1998.2,1620.4,2004.7z"/>
	</g>
</g>
<path class="st2" d="M1735.3,1633.6l-198.7,64.9c0,0,335.6,30.3,338.3,30.2c2.7,0-10.3-79.8-10.3-79.8L1735.3,1633.6z"/>
<path class="st60" d="M1887.6,1449.7l86.9-9c0,0,49.5,175.1,59.7,224.3s39.3,124.4,30.7,177.4s-41.7,70.2-109.6,119.1
	c-67.9,48.8-262.6,176.5-262.6,176.5s-64.7-23.8-51.9-136c123.9-132.6,229.3-195.1,229.3-195.1l-77.4-200.4L1887.6,1449.7z"/>
<g>
	<defs>
		<path id="SVGID_00000101095574946943578060000006961455968375562892_" d="M1887.6,1449.7l86.9-9c0,0,49.5,175.1,59.7,224.3
			s39.3,124.4,30.7,177.4s-41.7,70.2-109.6,119.1c-67.9,48.8-262.6,176.5-262.6,176.5s-64.7-23.8-51.9-136
			c123.9-132.6,229.3-195.1,229.3-195.1l-77.4-200.4L1887.6,1449.7z"/>
	</defs>
	<clipPath id="SVGID_00000164491473968939950870000007391615801133017501_">
		<use xlink:href="#SVGID_00000101095574946943578060000006961455968375562892_"  style="overflow:visible;"/>
	</clipPath>
	<g style="clip-path:url(#SVGID_00000164491473968939950870000007391615801133017501_);">
		<path class="st62" d="M1876.3,1488.2c-53,42-128,290.3-128,290.3s-183.5,374.6-185.4,382.8c-1.9,8.2,183.2,35.1,183.2,35.1
			s2,0.7,25-151.7s120.8-234.9,120.8-234.9s11.6-2.1-23.1-100.9C1834.1,1610,1876.3,1488.2,1876.3,1488.2z"/>
	</g>
</g>
<path class="st55" d="M1668.9,2265.6c0,0-2.6,16.8,2.9,28s75.3,75.6,96.1,97.1c20.7,21.6,21.8,47.6,10.1,78.2
	c-7.9,19.8-12.2,26.1-12.2,26.1s-54.5,29.3-108.2-5.4c-53.7-34.7-80.8-69.2-119.8-83.6c-39-14.4-12.5-83-4.2-101
	c8.3-18,23.4-36.6,36-77.6C1598.5,2242.5,1668.9,2265.6,1668.9,2265.6z"/>
<g>
	<defs>
		<path id="SVGID_00000168829555450668395890000005202062032100397213_" d="M1668.9,2265.6c0,0-2.6,16.8,2.9,28s75.3,75.6,96.1,97.1
			c20.7,21.6,21.8,47.6,10.1,78.2c-7.9,19.8-12.2,26.1-12.2,26.1s-54.5,29.3-108.2-5.4c-53.7-34.7-80.8-69.2-119.8-83.6
			c-39-14.4-12.5-83-4.2-101c8.3-18,23.4-36.6,36-77.6C1598.5,2242.5,1668.9,2265.6,1668.9,2265.6z"/>
	</defs>
	<clipPath id="SVGID_00000129201652787191152710000000832301443227528362_">
		<use xlink:href="#SVGID_00000168829555450668395890000005202062032100397213_"  style="overflow:visible;"/>
	</clipPath>
	<g style="clip-path:url(#SVGID_00000129201652787191152710000000832301443227528362_);">
		<path class="st2" d="M1658.6,2492.7c0,0,8.8,20.6,10,20.3c1.2-0.3,106.1-2.7,106.1-2.7s44.4-21.2,10.9-120.5
			C1665.9,2364.1,1658.6,2492.7,1658.6,2492.7z"/>
		<path class="st57" d="M1503.7,2344.4L1503.7,2344.4z"/>
		<path class="st57" d="M1703.2,2481.3c-52.5-4.2-69.8-47.1-138.6-85.3c-67.5-37.4-61.1-51.1-60.9-51.6c-18.2,32.8,3.1,58.7,5.8,60
			s56.7,40,54.1,40c-2.7,0,112.2,81.4,116.7,84.1c4.5,2.7,95.4-20.3,95.4-24.8c0-4.5,7-32.8,7-32.8S1755.7,2485.5,1703.2,2481.3z"/>
		<g class="st58">
			
				<ellipse transform="matrix(1 -6.032859e-03 6.032859e-03 1 -14.1141 9.5012)" class="st2" cx="1567.8" cy="2344.3" rx="29.1" ry="33"/>
		</g>
		<path d="M1697.6,2305.3c-13.7-4.7-28.7-1.5-43.4,9c-6.7,4.9-12.8,10.7-17.9,17.2c-1,1.4-0.6,3.4,0.8,4.3c1.3,0.9,3.1,0.6,4.1-0.6
			c0.3-0.3,25.6-33.8,54.4-24.1c1.6,0.5,3.4-0.5,3.9-2.1C1699.9,2307.6,1699.1,2305.9,1697.6,2305.3L1697.6,2305.3z"/>
		<path d="M1711.1,2324.2c-12.2-1.4-25.6,3.1-39,12.7c-6,4.4-11.6,9.4-16.5,15c-1.1,1.3-0.9,3.3,0.4,4.4c0.6,0.5,1.3,0.7,2,0.7
			c0.9,0,1.8-0.4,2.4-1.1c0.2-0.3,24.2-28.4,50-25.5c1.7,0.3,3.3-0.9,3.6-2.6c0.3-1.7-0.9-3.3-2.6-3.6
			C1711.3,2324.3,1711.2,2324.3,1711.1,2324.2L1711.1,2324.2z"/>
		<path d="M1735.4,2344.1c-31.8-0.1-54.8,26-55.7,27.1c-1.1,1.3-0.9,3.3,0.4,4.4c1.3,1.1,3.2,0.9,4.3-0.3c0.2-0.2,22.1-25.1,51-25
			c1.7,0,3.1-1.3,3.1-3.1c0,0,0-0.1,0-0.1C1738.5,2345.5,1737.1,2344.1,1735.4,2344.1z"/>
		<path class="st59" d="M1584.5,2217.2c-1.8-0.9-30.4,10.1-46.4,39.4l-0.3,2.4c0,0.9,51.7,54.1,137.7,23.7
			c-0.8-32.9,0.1-33.8,0.1-33.8S1586.3,2218.1,1584.5,2217.2z"/>
	</g>
</g>
<path class="st64" d="M1944.9,1440.3c0,0-86.7,58.8-110.8,215c-24.2,156.2-29.2,174.2-37.6,229.4c-8.4,55.2-121.4,393.6-121.4,393.6
	s-63.8,11.1-119.4-55.8c30.7-255.1,66.4-328.2,66-400s6-345.4,9.6-349C1634.8,1470,1944.9,1440.3,1944.9,1440.3z"/>
<g>
	<defs>
		<path id="SVGID_00000012469519611640917620000014704430841339675285_" d="M1944.9,1440.3c0,0-86.7,58.8-110.8,215
			c-24.2,156.2-29.2,174.2-37.6,229.4c-8.4,55.2-121.4,393.6-121.4,393.6s-63.8,11.1-119.4-55.8c30.7-255.1,66.4-328.2,66-400
			s6-345.4,9.6-349C1634.8,1470,1944.9,1440.3,1944.9,1440.3z"/>
	</defs>
	<clipPath id="SVGID_00000111158744671077997620000005625749223449520022_">
		<use xlink:href="#SVGID_00000012469519611640917620000014704430841339675285_"  style="overflow:visible;"/>
	</clipPath>
	<g style="clip-path:url(#SVGID_00000111158744671077997620000005625749223449520022_);">
		<path class="st2" d="M1768.2,1417.1c-0.1-0.3-0.1-0.7-0.1-1c-0.4,1.9-6.4,14-13.5,28c-16.3,32.5-43.6,87-66,142.1l-0.1,0.3l0,0.4
			c-17.7,158.6-28.4,223.7-33,251.5c-1.1,6.8-1.9,11.3-2.2,14.2c-1.7,14.1-85.4,408.9-86.3,412.9l5.2,1.1
			c3.5-16.3,84.6-399,86.3-413.4c0.3-2.8,1.1-7.2,2.2-14c4.6-27.8,15.3-92.9,33-251.4c22.4-54.8,49.5-109,65.7-141.4
			c14.1-28.2,14.5-29.2,13.9-31L1768.2,1417.1z"/>
	</g>
</g>
<path class="st4" d="M1776.6,1412.2l-11.9,33.7c0,0,89.6,56,215.2-4c-11-32.2-18.7-51.5-18.7-51.5L1776.6,1412.2z"/>
<path class="st66" d="M1778.2,807.5c0,0,5.8,40.5,2.3,64.3s-96.3,18.5-97.1,23c-0.8,4.5,93.8,530.4,93.8,530.4
	s114.2,40.6,196.3-16.4c-2.1-193.7-20.9-491.4-20.9-491.4s-85.8-21.5-96.1-29c-10.4-7.6-3.9-48-3.9-48l-66.2-38.6L1778.2,807.5z"/>
<g>
	<defs>
		<path id="SVGID_00000137853881738638470250000002153703425319107256_" d="M1778.2,807.5c0,0,5.8,40.5,2.3,64.3s-96.3,18.5-97.1,23
			c-0.8,4.5,93.8,530.4,93.8,530.4s114.2,40.6,196.3-16.4c-2.1-193.7-20.9-491.4-20.9-491.4s-85.8-21.5-96.1-29
			c-10.4-7.6-3.9-48-3.9-48l-66.2-38.6L1778.2,807.5z"/>
	</defs>
	<clipPath id="SVGID_00000166662913458998741970000010763706895819194292_">
		<use xlink:href="#SVGID_00000137853881738638470250000002153703425319107256_"  style="overflow:visible;"/>
	</clipPath>
	<g style="clip-path:url(#SVGID_00000166662913458998741970000010763706895819194292_);">
		<path class="st59" d="M1784.2,773.4c-1.2,0.6-11.2,24.3-11.2,24.3l-11,48.2c0,0,28,31.8,94.9,20.7c4.9-34.1,2.8-37.4,2.8-37.4
			S1785.4,772.8,1784.2,773.4z"/>
		<path class="st68" d="M1892.5,885.9l-29.9-8.7c0,0-21.2,7.7-56.1,6.4c-34.9-1.3-30.3,3.8-5.7,11s67.1,12,70.6,29.9
			c3.4,17.9,23.8,295.3,15.9,342.4s-79.6,43.5-79.6,43.5s-33.7,66.4-20.7,70.5c13,4,110.5-14.3,140.4,66.1
			c58.1,4.4,46.1-38.2,46.1-38.2L1892.5,885.9z"/>
		<path class="st69" d="M1791.4,767.3l-26.3,43.1l8.1,16.7c0.1,0.5,43.3,42.7,87.6,40.6c8.4-23.7,8.2-24.5,8.2-24.5L1791.4,767.3z"
			/>
	</g>
</g>
<path class="st2" d="M1761,883.6c-6.3-9.1-98.8,6.4-124.7,24.5s15.8,236.3-24.7,438.3c-40.5,202-79.8,267.5-90.7,357.8
	c84.4,57.3,190.8,74.2,239.7,30.8c35-224.2,80.4-386.8,76.3-503.9C1832.8,1114.1,1816.1,963.3,1761,883.6z"/>
<g>
	<defs>
		<path id="SVGID_00000056425077592116924090000005118883115501330839_" d="M1761,883.6c-6.3-9.1-98.8,6.4-124.7,24.5
			s15.8,236.3-24.7,438.3c-40.5,202-79.8,267.5-90.7,357.8c84.4,57.3,190.8,74.2,239.7,30.8c35-224.2,80.4-386.8,76.3-503.9
			C1832.8,1114.1,1816.1,963.3,1761,883.6z"/>
	</defs>
	<clipPath id="SVGID_00000054975207481559581160000006761843786245840044_">
		<use xlink:href="#SVGID_00000056425077592116924090000005118883115501330839_"  style="overflow:visible;"/>
	</clipPath>
	<g style="clip-path:url(#SVGID_00000054975207481559581160000006761843786245840044_);">
		<path class="st4" d="M1716.9,867.7c0,0,33.2,104.7,41,193.5c26.9,3.4,37.7,5.2,37.7,5.2l-25.8,31.6c0,0,60.5,74.1,67.2,292.9
			c46.6-295.4-65.3-556.6-65.3-556.6L1716.9,867.7z"/>
		<g class="st71">
			<path class="st4" d="M1708.6,1421.8c-36.1-4.8-53.5-13.4-53.9-14.7c-0.5-1.3-5.3,18-6.1,35.5c48.1,27.1,114.5,16.3,114.5,16.3
				l1.6-35.4C1764.6,1423.5,1754.1,1427.9,1708.6,1421.8z"/>
		</g>
	</g>
</g>
<path class="st72" d="M2365.7,819c-5.5,5.5-14.1,15.1-14.1,15.1l4.2-12c4.2-12,10.9-20.3,17.4-28.8c6.5-8.5,7.2-23,1.3-22.4
	c-8.7,0.8-24.3,25.5-27.7,31.9s-15.5,28.3-15.5,28.3s-0.1-24.1,4.9-32.2c5-8.1,8.6-18.3,14.3-28.4c5.6-10.1,1-16.7-6.7-14.6
	c-7.7,2.1-18.7,22.5-23.8,32.4c-5.1,9.9-15.6,29.1-15.6,29.1s1.4-19.2,6.9-31.9c5.5-12.6,11.9-30.5-0.5-25.2
	c-12.4,5.3-30.5,48-32.1,74.4c-1.5,26.4-5.3,105.8-5.3,105.8s27.3,0,51.2,8.5c39.1-26.2,28.2-60.1,30.6-78.5s10.8-25,18.2-36
	c7.4-11,18.1-16.5,14.1-22S2370.4,814.4,2365.7,819z"/>
<path class="st73" d="M2315.8,810.2c-15.6,9.6-36.6,24.6-41.9,39.4c-5.3,14.8-13.1,49.6-13.1,49.6s-1.4,18.3-2.3,18.6
	c7.9,14.7,19.7,27,34.1,35.4c44.2-28.2,17.5-73.3,14.8-81.3c-2.7-8-1.5-19.7,13.7-35.7C2336.3,820.1,2331.4,800.5,2315.8,810.2z"/>
<path class="st73" d="M2163.6,1123.3l-51.4-42.7l-45.5,120.9c0,0,77.1,65.5,101.3,68.5c24.2,3,31.4-1.5,76.7-78.1
	s90.8-251.7,90.8-251.7s-6.3-4.4-77.3-23.7C2225,1034.1,2163.6,1123.3,2163.6,1123.3z"/>
<path class="st2" d="M1882.4,894c0,0,7.4,77.3,14.2,203.7c6.8,126.4,15.7,300.6,66.7,424.1c51,123.5,42.5,200.6,42.5,200.6
	s44.9,10.5,48.1-54.1c-44.5-240.1-97.6-418.3-77.6-522.4c83.1,98.2,120.9,115,120.9,115s41.9-42.4,39.3-173.3
	c-118.1-104.3-157-156.5-171.4-169.4C1950.6,905.3,1882.4,894,1882.4,894z"/>
<g>
	<defs>
		<path id="SVGID_00000067914355036062988800000011865581953153415300_" d="M1882.4,894c0,0,7.4,77.3,14.2,203.7
			c6.8,126.4,15.7,300.6,66.7,424.1c51,123.5,42.5,200.6,42.5,200.6s44.9,10.5,48.1-54.1c-44.5-240.1-97.6-418.3-77.6-522.4
			c83.1,98.2,120.9,115,120.9,115s41.9-42.4,39.3-173.3c-118.1-104.3-157-156.5-171.4-169.4C1950.6,905.3,1882.4,894,1882.4,894z"/>
	</defs>
	<clipPath id="SVGID_00000119831082693977906380000002990833870386288564_">
		<use xlink:href="#SVGID_00000067914355036062988800000011865581953153415300_"  style="overflow:visible;"/>
	</clipPath>
	<g style="clip-path:url(#SVGID_00000119831082693977906380000002990833870386288564_);">
		<path class="st4" d="M1922.7,883.5c0,0-59.2-7.7-59.3-5c0,2.7-15.3,292.5,39.6,471.6c12.6-140.9,39.7-266.6,39.7-266.6l-22.5-18.7
			l27.8-3.8L1922.7,883.5z"/>
		<g class="st71">
			<path class="st4" d="M2054.6,1158c-61-39.9-73.4-165.5-73.4-163.4s-5.2,167.4-5.2,167.4s5.7,34.8,35.2,55.8
				c29.5,21,86.4,61.6,89.8,61.6c3.4,0,66.3-106.9,66.3-106.9C2161.9,1172.4,2115.6,1197.9,2054.6,1158z"/>
		</g>
	</g>
</g>
<path class="st59" d="M1660.8,1252.5l12.3,26.8c0,0,142,4.5,211.2-5.3c19.8,49.7,3.8,72.6,3.8,72.6s-231.8,45.1-303.8,50.3
	c-71.9,5.1-90.9-15.6-79.7-65.4s26.4-77.5,26.4-77.5L1660.8,1252.5z"/>
<g>
	<defs>
		<path id="SVGID_00000147918576801717265420000010368328782538375584_" d="M1660.8,1252.5l12.3,26.8c0,0,142,4.5,211.2-5.3
			c19.8,49.7,3.8,72.6,3.8,72.6s-231.8,45.1-303.8,50.3c-71.9,5.1-90.9-15.6-79.7-65.4s26.4-77.5,26.4-77.5L1660.8,1252.5z"/>
	</defs>
	<clipPath id="SVGID_00000059298070970919719270000003997918844547059877_">
		<use xlink:href="#SVGID_00000147918576801717265420000010368328782538375584_"  style="overflow:visible;"/>
	</clipPath>
	<g style="clip-path:url(#SVGID_00000059298070970919719270000003997918844547059877_);">
		<path class="st73" d="M1525.1,1333.8c0.7-29.1,35-60.3,35-60.3l-41.9-27.6l-46.9,97.3l68.5,81.2c4.2,1.2,272-52.4,272-52.4
			s-145.9,6.6-213.6,9.2C1530.5,1383.6,1524.3,1362.8,1525.1,1333.8z"/>
	</g>
</g>
<path class="st42" d="M987,2414.4c-43.6-87.2-101.8-144.7-305.2-187.9c28.9,114.2,164.7,308.4,337.2,355.8
	C1014.2,2466.7,987,2414.4,987,2414.4z"/>
<g>
	<defs>
		<path id="SVGID_00000025415179208661365980000016689851843848862650_" d="M987,2414.4c-43.6-87.2-101.8-144.7-305.2-187.9
			c28.9,114.2,164.7,308.4,337.2,355.8C1014.2,2466.7,987,2414.4,987,2414.4z"/>
	</defs>
	<clipPath id="SVGID_00000057148542287494966890000000887405412431426464_">
		<use xlink:href="#SVGID_00000025415179208661365980000016689851843848862650_"  style="overflow:visible;"/>
	</clipPath>
	<g style="clip-path:url(#SVGID_00000057148542287494966890000000887405412431426464_);">
		<path d="M998.3,2508.7c-2.3-3.7-4.5-7.3-6.9-10.9c-4.7-7.2-9.7-14.2-14.9-21.1c-5.2-6.9-10.6-13.6-16.2-20.1
			c-5.6-6.6-11.3-13-17.2-19.3c-11.8-12.5-24.2-24.5-36.9-36.1c-12.7-11.6-25.9-22.6-39.5-33.2c-6.7-5.3-13.6-10.5-20.5-15.6
			c-6.9-5.1-13.9-10.1-21-15c-14.1-9.8-28.5-19.2-43.1-28.1c-14.7-8.9-29.5-17.5-44.8-25.3c14.7,8.8,29.2,18,43.4,27.5
			s28.3,19.3,42.1,29.3c13.8,10,27.4,20.4,40.7,31.1c6.6,5.4,13.3,10.8,19.8,16.3c6.5,5.5,12.9,11.2,19.3,16.9s12.6,11.5,18.7,17.4
			s12.1,12,18.1,18.1c11.8,12.3,23.1,25.1,33.7,38.5c5.3,6.7,10.4,13.5,15.3,20.5c2.5,3.5,4.8,7,7.2,10.6s4.6,7.2,6.8,10.9
			c8.9,14.6,16.5,30,22.7,45.9c-5.2-16.4-12.1-32.2-20.5-47.2C1002.7,2516.1,1000.4,2512.4,998.3,2508.7z"/>
	</g>
</g>
<polygon class="st77" points="2293.7,2143.5 2311.5,2585.6 2464.5,2581.7 2460.3,1884.8 2386.9,1900.5 "/>
<polygon class="st78" points="1897,2168 2308.6,2165.6 2460.3,1884.8 2048.7,1887.3 "/>
<polygon class="st66" points="2194.1,2142 1941.3,2143.6 2066.8,1911.4 2319.6,1909.9 "/>
<g>
	<defs>
		<polygon id="SVGID_00000161607097553681687380000013716469714173951375_" points="2194.1,2142 1941.3,2143.6 2066.8,1911.4 
			2319.6,1909.9 		"/>
	</defs>
	<clipPath id="SVGID_00000093876572946946473110000009707864582998711485_">
		<use xlink:href="#SVGID_00000161607097553681687380000013716469714173951375_"  style="overflow:visible;"/>
	</clipPath>
	<g style="clip-path:url(#SVGID_00000093876572946946473110000009707864582998711485_);">
		<polygon class="st80" points="1918.7,2174.2 1975.2,2173.8 2226.6,1898.3 2184.7,1891.2 		"/>
		<polygon class="st80" points="2007,2173.6 2109.9,2173 2361.3,1897.5 2273,1890.7 		"/>
	</g>
</g>
<polygon class="st4" points="2217.9,2141.9 2287,2141.5 2412.4,1909.3 2343.3,1909.7 "/>
<path class="st5" d="M2212.7,2145l76.2-0.5l128.8-238.4l-76.2,0.5L2212.7,2145z M2407.2,1912.4l-122.1,225.9l-62,0.4l122.1-225.9
	L2407.2,1912.4z"/>
<polygon class="st1" points="2236.7,2130.3 2278.5,2130 2390.7,1923.2 2348.9,1923.5 "/>
<rect x="1898.4" y="2165.5" transform="matrix(1 -6.032859e-03 6.032859e-03 1 -14.2999 12.7374)" class="st81" width="411.5" height="422.4"/>
<g>
	<defs>
		
			<rect id="SVGID_00000070808574709457644880000004363999264465735317_" x="1898.4" y="2165.5" transform="matrix(1 -6.032859e-03 6.032859e-03 1 -14.2999 12.7374)" width="411.5" height="422.4"/>
	</defs>
	<clipPath id="SVGID_00000055693185552453998360000009708459103789009079_">
		<use xlink:href="#SVGID_00000070808574709457644880000004363999264465735317_"  style="overflow:visible;"/>
	</clipPath>
	<g style="clip-path:url(#SVGID_00000055693185552453998360000009708459103789009079_);">
		<path class="st83" d="M1938.1,2204.1l313.9-1.9c12.1-0.1,22,9.7,22.1,21.8l1.8,299.4c0.1,12.1-9.7,22-21.8,22.1l-313.9,1.9
			c-12.1,0.1-22-9.7-22.1-21.8l-1.8-299.4C1916.2,2214,1926,2204.2,1938.1,2204.1z"/>
		<g>
			<defs>
				<path id="SVGID_00000057827601416981634500000009700417467713913272_" d="M1938.1,2204.1l313.9-1.9c12.1-0.1,22,9.7,22.1,21.8
					l1.8,299.4c0.1,12.1-9.7,22-21.8,22.1l-313.9,1.9c-12.1,0.1-22-9.7-22.1-21.8l-1.8-299.4C1916.2,2214,1926,2204.2,1938.1,2204.1
					z"/>
			</defs>
			<clipPath id="SVGID_00000056417456723663055300000015175540034278145408_">
				<use xlink:href="#SVGID_00000057827601416981634500000009700417467713913272_"  style="overflow:visible;"/>
			</clipPath>
			<g style="clip-path:url(#SVGID_00000056417456723663055300000015175540034278145408_);">
				<g class="st23">
					<polygon class="st2" points="1964.2,2579.9 1988.8,2579.8 2112.9,2188.5 2081.1,2192.3 					"/>
				</g>
				<g class="st23">
					<polygon class="st2" points="2031.1,2579.5 2108.9,2579.1 2233.1,2187.7 2148,2191.9 					"/>
				</g>
			</g>
		</g>
		<path class="st85" d="M1944.7,2226.8c-4,0-7.2,3.3-7.2,7.3l0.5,86.1c0,4,3.3,7.3,7.3,7.2c4,0,7.3-3.3,7.2-7.3l-0.5-86.1
			C1952,2230,1948.8,2226.8,1944.7,2226.8z"/>
		<path class="st85" d="M1979.8,2226.6c-4,0-7.2,3.3-7.2,7.3l0.5,86.1c0,4,3.2,7.3,7.2,7.3c4,0,7.3-3.2,7.3-7.2c0-0.1,0-0.1,0-0.2
			l-0.5-86.1C1987.1,2229.8,1983.8,2226.6,1979.8,2226.6z"/>
		<path class="st85" d="M2014.9,2226.4c-4,0-7.2,3.3-7.2,7.3l0.5,86.1c0,4,3.2,7.3,7.2,7.3c4,0,7.3-3.2,7.3-7.2c0-0.1,0-0.1,0-0.2
			l-0.5-86.1C2022.1,2229.6,2018.9,2226.4,2014.9,2226.4z"/>
	</g>
</g>
<path class="st4" d="M2358.5,1808.1c-5.6,0-10.1,4.6-10.1,10.2l0.7,121.1c0,5.6,4.6,10.1,10.2,10.1c5.6,0,10.1-4.6,10.1-10.2
	l-0.7-121.1C2368.7,1812.6,2364.1,1808.1,2358.5,1808.1z"/>
<ellipse transform="matrix(0.9992 -4.092805e-02 4.092805e-02 0.9992 -71.1307 98.0199)" class="st66" cx="2358.4" cy="1786.2" rx="32.6" ry="32.6"/>
<path class="st86" d="M1054.3,2053.3l-3.4,1c47.2,154.2,61.2,292.5,64.6,381.4c3.7,96.3-3.9,156.9-4,157.5l3.5,0.4
	c0.1-0.6,7.7-61.4,4-158C1115.6,2346.6,1101.6,2208,1054.3,2053.3z"/>
<circle class="st2" cx="1043" cy="2025.6" r="37.2"/>
<g class="st8">
	<path class="st2" d="M3945.7,1215.5c-3.1-5.1-7-9.7-11.4-13.7c-4.3-3.9-8.9-7.4-13.7-10.5c-9.6-6-19.7-11-30.3-14.9
		c-20.9-8-42.5-13.2-64.2-17.3c-21.7-4.2-43.6-7-65.4-9.2c-43.8-4.4-87.7-6.1-131.6-6.5c-21.9-0.2-43.9,0-65.8,0.4
		c-21.9,0.4-43.8,1.2-65.7,2.1c43.8-0.6,87.7-0.5,131.5,1c21.9,0.8,43.8,1.8,65.6,3.3s43.6,3.5,65.3,6.2c21.7,2.7,43.3,6,64.6,10.5
		c21.3,4.5,42.4,10.1,62.3,18.1c9.9,3.9,19.4,8.8,28.3,14.6c4.3,2.9,8.4,6.1,12.2,9.7c3.7,3.4,6.8,7.3,9.4,11.6
		c2.5,4.2,4.2,8.7,5,13.5c0.8,4.8,0.7,9.7-0.2,14.4c-1.9,9.7-6.7,18.9-12.7,27.5c-3,4.3-6.3,8.4-9.8,12.3c-1.7,2-3.6,3.9-5.4,5.9
		c-1.8,1.9-3.7,3.8-5.7,5.6c-7.8,7.4-15.9,14.4-24.4,21c-17.2,13.2-35.1,25.4-53.7,36.5c-37.2,22.5-76.1,42.4-115.6,60.9
		c-79.1,37-160.6,69-242.8,98.8c-41.1,14.9-82.5,29.2-124.1,42.9c-41.6,13.7-83.3,27-125.1,39.9c-83.7,25.7-167.8,49.9-252.4,72.6
		c-84.6,22.7-169.4,44.3-254.6,64.8c-85.2,20.4-170.6,39.8-256.3,58s-171.5,35.5-257.6,51.7c-86.1,16.2-172.4,31.3-258.8,45.1
		c-172.9,27.7-346.6,50.9-521,66.3c-87.2,7.6-174.6,13.3-262,15.3c-43.7,1-87.4,1-131.1-0.5c-21.8-0.8-43.6-1.9-65.4-3.6
		c-21.7-1.8-43.4-4-64.9-7.2c-21.5-3-42.7-7.5-63.7-13.2c-2.6-0.7-5.2-1.5-7.8-2.3c-2.6-0.8-5.2-1.6-7.7-2.5
		c-5.1-1.7-10.2-3.6-15-5.7c-4.9-2.1-9.7-4.4-14.4-6.9c-4.6-2.5-9.1-5.2-13.4-8.4c-4.2-3-8-6.5-11.5-10.3c-3.4-3.7-6.1-8-8.2-12.6
		c-1-2.3-1.7-4.6-2.3-7c-0.5-2.4-0.8-4.9-0.9-7.3c0-2.5,0.1-5,0.4-7.5c0.4-2.5,0.9-5,1.6-7.4c1.5-5,3.6-9.7,6.1-14.3
		c2.6-4.6,5.5-9.1,8.7-13.3c6.5-8.6,13.8-16.6,21.7-23.9c15.7-14.9,33.2-28.1,51.1-40.5s36.6-23.8,55.6-34.8
		c37.9-21.9,77.1-41.6,116.7-60.4c-20.1,8.8-40,17.9-59.8,27.3c-19.8,9.5-39.4,19.4-58.7,29.9s-38.3,21.6-56.7,33.6
		c-18.4,12-36.3,25-52.8,39.9c-8.3,7.4-16,15.6-23,24.3c-6.9,8.8-13,18.6-16.6,29.7c-0.9,2.8-1.6,5.7-2.1,8.6
		c-0.5,2.9-0.7,5.9-0.7,8.9c0.1,3,0.4,6,1,9c0.6,3,1.5,5.8,2.6,8.6c2.3,5.5,5.5,10.6,9.4,15.1c3.8,4.4,8.1,8.4,12.7,11.9
		c4.5,3.5,9.3,6.6,14.3,9.3c5,2.8,10,5.3,15.1,7.5c5.1,2.2,10.3,4.4,15.6,6.2c2.6,1,5.3,1.8,7.9,2.7c2.6,1,5.3,1.7,8,2.5
		c21.2,6.3,42.9,11.2,64.7,14.7c21.8,3.7,43.7,6.3,65.6,8.4c21.9,2.1,43.9,3.6,65.9,4.7c44,2.2,88,2.7,131.9,2.3
		c44-0.4,87.9-1.8,131.8-4c43.9-2.1,87.7-4.9,131.5-8.4s87.5-7.4,131.2-11.8c43.7-4.4,87.3-9.3,130.9-14.6
		c87.2-10.6,174.1-22.8,260.9-36.3c86.8-13.4,173.3-28.4,259.6-44.3c86.3-16,172.4-33.2,258.3-51.5c85.9-18.3,171.5-37.8,256.8-58.5
		c42.7-10.4,85.3-21,127.8-32c42.5-11,85-22.3,127.3-33.9c84.7-23.3,168.9-48.1,252.7-74.4c41.9-13.2,83.6-26.9,125.2-41
		c41.6-14.1,83-28.9,124.1-44.3c41.2-15.3,82.1-31.4,122.7-48.3c40.6-16.9,80.8-34.7,120.4-54c9.9-4.8,19.8-9.7,29.6-14.7
		s19.6-10.1,29.3-15.4c19.4-10.5,38.6-21.5,57.3-33.2c18.9-11.7,37-24.5,54.4-38.3c8.8-7,17.1-14.4,25.1-22.3c2-2,3.9-4,5.9-6
		c1.9-2,3.8-4.2,5.6-6.3c3.7-4.3,7.2-8.8,10.5-13.6c3.3-4.8,6.1-9.9,8.6-15.1c2.5-5.4,4.3-11.1,5.4-17c1.1-6.1,1.1-12.2,0-18.3
		C3951.3,1226.5,3949,1220.7,3945.7,1215.5z"/>
</g>
<circle class="st2" cx="3522.7" cy="1139.7" r="29.7"/>
<g class="st25">
	<path class="st22" d="M2000.2,1051.1c-28.1,164.4-47.2,436.7-47.2,436.7s154.6,47.7,319.3-31.6c-3.3-203.4,16.7-397.5,16.7-397.5
		S2130.2,1067.9,2000.2,1051.1z"/>
</g>
<path class="st59" d="M2035.8,1295.3c-9-1.9-54.2-9.9-54.2-9.9s44.9-6.7,54.8-3.7c9.9,3,41.4,12.2,44.7,0.7
	c3.3-11.6-45.2-23.7-56.5-22.7c-11.4,1-63.7-0.9-63.7-0.9s3.8-4.2,23.3-11.7c19.5-7.4,16.5-20.9,5.4-17.5
	c-11.1,3.3-39.7,14.2-59.9,22.3s-53.8,27-53.8,27l1.1,63.3c0,0,41.2,14.5,67.8,20s56.8,12,68.8,13c12,1,34.1-3.7,35.3-10.7
	c1.2-7-21.3-6-31.9-7.6c-10.6-1.6-28.6-18.5-28.6-18.5s21.2,4.6,45.2,10c24,5.4,41.7,0.2,41.2-6.5c-0.5-6.7-32.8-10-41.8-12.6
	c-9-2.6-40-16.9-40-16.9s26.7-1.2,39,2.1c12.3,3.4,55.6,21,58.9,8.7C2094.2,1311.1,2044.8,1297.3,2035.8,1295.3z"/>
<g class="st23">
	
		<ellipse transform="matrix(1 -6.032855e-03 6.032855e-03 1 -5.7994 8.4754)" class="st2" cx="1402" cy="965.5" rx="36.3" ry="36.3"/>
</g>
<g class="st23">
	<circle class="st2" cx="1402" cy="965.5" r="18.5"/>
</g>
<g class="st87">
	
		<ellipse transform="matrix(0.9992 -4.092804e-02 4.092804e-02 0.9992 -74.5718 140.1436)" class="st2" cx="3385.4" cy="1891.3" rx="36.3" ry="36.3"/>
</g>
<g class="st23">
	<circle class="st2" cx="3503" cy="1902.7" r="21.5"/>
</g>
<path class="st39" d="M1021.3,2589.1c0,0-45.7-222.6-165-369s-67.8-234.6,4-222.5s137,114,190.2,296.6c53.1,182.7,37.7,294,37.7,294
	L1021.3,2589.1z"/>
<g>
	<defs>
		<path id="SVGID_00000150067205896063930310000007878205800435619511_" d="M1021.3,2589.1c0,0-45.7-222.6-165-369
			s-67.8-234.6,4-222.5s137,114,190.2,296.6c53.1,182.7,37.7,294,37.7,294L1021.3,2589.1z"/>
	</defs>
	<clipPath id="SVGID_00000014600674947396013570000011477208721166970761_">
		<use xlink:href="#SVGID_00000150067205896063930310000007878205800435619511_"  style="overflow:visible;"/>
	</clipPath>
	<g style="clip-path:url(#SVGID_00000014600674947396013570000011477208721166970761_);">
		<path d="M1053.5,2527.2c-1.4-24-3.6-47.9-6.9-71.7l-2.7-17.8c-0.4-3-1-6-1.5-8.9l-1.6-8.9c-0.6-3-1-6-1.7-8.9l-1.9-8.8
			c-1.2-5.9-2.4-11.8-3.9-17.6l-2.1-8.8l-1.1-4.4c-0.4-1.5-0.7-2.9-1.2-4.4l-2.4-8.7c-0.9-2.9-1.8-5.8-2.7-8.6
			c-0.5-1.4-0.9-2.9-1.4-4.3l-1.5-4.3c-1-2.8-2-5.7-3.1-8.5c-2.2-5.6-4.2-11.3-6.6-16.8c-9.1-22.3-19.5-44-30.5-65.4
			c-11-21.4-22.6-42.4-34.8-63s-24.7-41.1-37.7-61.3c-13-20.2-26.4-40.1-40.4-59.5c12.9,20.2,25.5,40.6,37.8,61.1
			c6.2,10.3,12.3,20.6,18.3,30.9l9,15.5c3,5.2,5.9,10.4,8.8,15.7c11.6,20.9,23.1,41.9,33.8,63.3l4,8l3.9,8
			c2.7,5.4,5.1,10.8,7.7,16.2c5,10.9,9.9,21.8,14.3,32.8c2.3,5.5,4.5,11.1,6.6,16.6c1.1,2.8,2,5.6,3,8.4l1.5,4.2
			c0.5,1.4,0.9,2.8,1.4,4.2c0.9,2.8,1.9,5.6,2.7,8.5l2.5,8.6c0.4,1.4,0.8,2.9,1.2,4.3l1.1,4.3l2.2,8.7c5.7,23.2,10.3,46.6,14.1,70.2
			l2.6,17.7l2.3,17.8c0.8,6,1.3,11.9,2,17.8s1.1,11.9,1.7,17.9s1,11.9,1.4,17.9c0.4,6,0.8,12,1.1,17.9c0.3,5.9,0.6,12,0.7,18
			s0.4,12,0.4,18c0.3-6,0.5-12,0.6-18s0.1-12,0-18s-0.2-12-0.4-18C1054.1,2539.3,1053.8,2533.2,1053.5,2527.2z"/>
	</g>
</g>
<path class="st89" d="M863,2599.7L863,2599.7c-0.1-8.9,7.1-16.2,16-16.2l3007.3-18.1c8.9-0.1,16.2,7.1,16.2,16v0
	c0.1,8.9-7.1,16.2-16,16.2l-3007.3,18.1C870.3,2615.8,863.1,2608.6,863,2599.7z"/>
<path class="st59" d="M1897.7,715c0,0-0.9,37.4-1.3,69.1s4.9,73.2-31.3,72.8c-36.2-0.4-73.4-29.8-78.3-42.9
	c-4.9-13.1-5.3-36.7-5.3-36.7s-18.2,3.7-18.4-20.8c-0.1-24.5,14.8-30.6,25-19.9c7.3-27,11.4-39.5,45.9-31.1
	C1854.9,710.7,1876.2,713.8,1897.7,715z"/>
<g>
	<defs>
		<path id="SVGID_00000117634822668011649890000014380168321272203432_" d="M1897.7,715c0,0-0.9,37.4-1.3,69.1s4.9,73.2-31.3,72.8
			c-36.2-0.4-73.4-29.8-78.3-42.9c-4.9-13.1-5.3-36.7-5.3-36.7s-18.2,3.7-18.4-20.8c-0.1-24.5,14.8-30.6,25-19.9
			c7.3-27,11.4-39.5,45.9-31.1C1854.9,710.7,1876.2,713.8,1897.7,715z"/>
	</defs>
	<clipPath id="SVGID_00000062889728352146292420000010847579774043753897_">
		<use xlink:href="#SVGID_00000117634822668011649890000014380168321272203432_"  style="overflow:visible;"/>
	</clipPath>
	<g style="clip-path:url(#SVGID_00000062889728352146292420000010847579774043753897_);">
		<g class="st91">
			<path class="st92" d="M1809,768.2c-9-0.3-16.6,6.8-16.9,15.9c-0.3,9,6.8,16.6,15.9,16.9c9,0.3,16.6-6.8,16.9-15.9
				C1825.1,776,1818,768.5,1809,768.2C1809,768.2,1809,768.2,1809,768.2z"/>
		</g>
		<g class="st91">
			<path class="st92" d="M1902.4,770.2c-9-0.3-16.6,6.8-16.9,15.9c-0.3,9,6.8,16.6,15.9,16.9c9,0.3,16.6-6.8,16.9-15.9
				C1918.5,778.1,1911.4,770.5,1902.4,770.2C1902.4,770.3,1902.4,770.3,1902.4,770.2z"/>
		</g>
		<path d="M1830.6,750.2c-3.7-0.1-6.7,3.6-6.8,8.2c-0.1,4.6,2.8,8.3,6.5,8.4c3.7,0.1,6.7-3.6,6.8-8.2
			C1837.2,754,1834.3,750.2,1830.6,750.2z"/>
		<path d="M1877.3,750.9c-3.7-0.1-6.7,3.6-6.8,8.2c-0.1,4.6,2.8,8.3,6.5,8.4s6.7-3.6,6.8-8.2C1883.9,754.8,1881,751,1877.3,750.9z"
			/>
		<path d="M1841.2,731.4c-3.4-0.3-14.4-1.5-20.5,0.1c-6.1,1.7-10.6,4.4-10.1,6c0.6,1.6,5.4,0.1,10.4-0.9c4.9-1,15.6,0.1,19.3,0.4
			s5-0.2,5.5-1.5C1846.9,732.5,1844.6,731.7,1841.2,731.4z"/>
		<path d="M1885.8,732.6c-4.3-1.8-11.9-0.8-14.2-0.5s-3.9,1-3,4c0.4,1.3,1.4,1.9,3.9,1.6c2.5-0.3,10-1.1,13.4,0
			c3.4,1.1,6.9,2.7,7.2,1.1S1890.1,734.4,1885.8,732.6z"/>
		<path d="M1832.2,806.1c-4.1-1.5-7.3,3.6-2.2,10c2,2.5,11,12.4,23.5,12.6c12.5,0.3,16.4-9.2,17.6-12.3c1.3-3.1,0.6-5.9-3.7-5.7
			c-3.5,0.2-5.1,1.2-12.6,0.6C1847.5,810.7,1835.6,807.4,1832.2,806.1z"/>
		<g>
			<defs>
				<path id="SVGID_00000054956236321537665210000011460524323949992088_" d="M1832.2,806.1c-4.1-1.5-7.3,3.6-2.2,10
					c2,2.5,11,12.4,23.5,12.6c12.5,0.3,16.4-9.2,17.6-12.3c1.3-3.1,0.6-5.9-3.7-5.7c-3.5,0.2-5.1,1.2-12.6,0.6
					C1847.5,810.7,1835.6,807.4,1832.2,806.1z"/>
			</defs>
			<clipPath id="SVGID_00000091712637287018221730000003107977541561620648_">
				<use xlink:href="#SVGID_00000054956236321537665210000011460524323949992088_"  style="overflow:visible;"/>
			</clipPath>
			<g style="clip-path:url(#SVGID_00000091712637287018221730000003107977541561620648_);">
				<path class="st2" d="M1856.5,822.1c-6.4-2.9-18.9-6.2-25.9,1.3c-1,1.1-1,2.7,0.1,3.7c0.2,0.2,0.4,0.4,0.7,0.5
					c9,4,18.9,5.8,28.8,5.1c1.4-0.1,2.5-1.3,2.4-2.8c0-0.1,0-0.2,0-0.2C1862,826.3,1859.7,823.4,1856.5,822.1z"/>
			</g>
		</g>
		<path class="st69" d="M1857.3,752c-0.7,0.2,0.1,48,0.1,48s16.3-7.4,15.4-13.3S1857.9,751.7,1857.3,752z"/>
		<path class="st69" d="M1908.6,701.5c-1.2-0.3-82.9-13.1-82.9-13.1s-41-10.1-42.2-6.4c-1.2,3.7-36.4,65.5-36.4,65.5s25-25.3,37,3.4
			c13.2-28,5.5-44.6,53.5-33.7c48,10.9,71.6,5.3,71.6,5.3S1909.8,701.8,1908.6,701.5z"/>
	</g>
</g>
<path class="st2" d="M1703.6,994.7c1.8,27.5-29.6,282.7-29.6,282.7s-98.9,32.3-165.7-14c53.7-186.7,91-354.2,128.9-352.7
	C1675.1,912.1,1701.6,963,1703.6,994.7z"/>
<g>
	<defs>
		<path id="SVGID_00000008845275131857561290000016729982273718073756_" d="M1703.6,994.7c1.8,27.5-29.6,282.7-29.6,282.7
			s-98.9,32.3-165.7-14c53.7-186.7,91-354.2,128.9-352.7C1675.1,912.1,1701.6,963,1703.6,994.7z"/>
	</defs>
	<clipPath id="SVGID_00000181088157064107747860000017682916437565857429_">
		<use xlink:href="#SVGID_00000008845275131857561290000016729982273718073756_"  style="overflow:visible;"/>
	</clipPath>
	<g style="clip-path:url(#SVGID_00000181088157064107747860000017682916437565857429_);">
		<g class="st71">
			<path class="st4" d="M1681.4,1098.6c-14.7,94.5-6.1,128.4-76.1,142.5c-70,14.1-107.6-28.5-107.6-28.5s-18,32-3.2,68.3
				c78.7,66,223.1,12.3,223.1,12.3s17.6-108.5,16.9-213.1c-0.6-102.1-2.5-117.6-65.5-189.8
				C1693.8,923.3,1695.5,1008.5,1681.4,1098.6z"/>
			<path class="st4" d="M1669,890.3c-1.5-2-3.1-3.8-4.8-5.5L1669,890.3z"/>
		</g>
	</g>
</g>
<path class="st86" d="M3317.3,1419.2l-13.5,0.1c-2.4,0-4.3-1.9-4.3-4.3l-0.1-13.3c0-2.4-2-4.3-4.3-4.3l-13.5,0.1
	c-2.4,0-4.3,2-4.3,4.3l0.1,13.3c0,2.4-1.9,4.3-4.3,4.3c0,0,0,0,0,0l-13.5,0.1c-2.4,0-4.3,2-4.3,4.3l0.1,13.5c0,2.4,2,4.3,4.3,4.3
	l13.5-0.1c2.4,0,4.3,1.9,4.3,4.3c0,0,0,0,0,0l0.1,13.3c0,2.4,1.9,4.3,4.3,4.3c0,0,0,0,0,0l13.5-0.1c2.4,0,4.3-1.9,4.3-4.3
	c0,0,0,0,0,0l-0.1-13.3c0-2.4,1.9-4.3,4.3-4.3c0,0,0,0,0,0l13.5-0.1c2.4,0,4.3-1.9,4.3-4.3c0,0,0,0,0,0l-0.1-13.5
	C3321.6,1421.1,3319.7,1419.2,3317.3,1419.2C3317.3,1419.2,3317.3,1419.2,3317.3,1419.2z"/>
<path class="st86" d="M1394.6,1436.3l-13.5,0.1c-2.4,0-4.3-1.9-4.3-4.3l-0.1-13.3c0-2.4-1.9-4.3-4.3-4.3c0,0,0,0,0,0l-13.5,0.1
	c-2.4,0-4.3,2-4.3,4.3l0.1,13.3c0,2.4-1.9,4.3-4.3,4.3c0,0,0,0,0,0l-13.5,0.1c-2.4,0-4.3,1.9-4.3,4.3c0,0,0,0,0,0l0.1,13.5
	c0,2.4,1.9,4.3,4.3,4.3c0,0,0,0,0,0l13.5-0.1c2.4,0,4.3,1.9,4.3,4.3l0.1,13.3c0,2.4,2,4.3,4.3,4.3l13.5-0.1c2.4,0,4.3-1.9,4.3-4.3
	c0,0,0,0,0,0l-0.1-13.3c0-2.4,1.9-4.3,4.3-4.3c0,0,0,0,0,0l13.5-0.1c2.4,0,4.3-2,4.3-4.3l-0.1-13.5
	C1398.9,1438.2,1397,1436.3,1394.6,1436.3C1394.6,1436.3,1394.6,1436.3,1394.6,1436.3z"/>
<path class="st86" d="M3597.3,1762.4c-1.8-1.5-2.1-4.2-0.5-6.1c0,0,0,0,0,0l8.5-10.2c1.5-1.8,1.3-4.5-0.5-6.1l-10.4-8.7
	c-1.8-1.5-4.5-1.3-6,0.5c0,0,0,0,0,0l-8.5,10.2c-1.5,1.8-4.2,2.1-6.1,0.5l-10.4-8.7c-1.8-1.5-4.5-1.3-6.1,0.5l-8.7,10.4
	c-1.5,1.8-1.3,4.5,0.5,6.1c0,0,0,0,0,0l10.4,8.7c1.8,1.5,2.1,4.2,0.5,6c0,0,0,0,0,0l-8.5,10.2c-1.5,1.8-1.3,4.5,0.5,6.1l10.4,8.7
	c1.8,1.5,4.5,1.3,6-0.5c0,0,0,0,0,0l8.6-10.2c1.5-1.8,4.2-2.1,6-0.5c0,0,0,0,0,0l10.4,8.7c1.8,1.5,4.5,1.3,6.1-0.5c0,0,0,0,0,0
	l8.7-10.4c1.5-1.8,1.3-4.5-0.5-6.1L3597.3,1762.4z"/>
<g class="st95">
	<path class="st2" d="M1830.3,2172.2c-0.8-37.2-1.9-74.4-3.8-111.5c-1.5,37.2-2.1,74.4-2.4,111.6c-0.2,18.6-0.2,37.2-0.3,55.8
		l0.1,55.8l0.6,55.8l0.5,27.9l0.2,13.9l0.3,13.9c0.8,37.2,1.9,74.4,3.8,111.6c1.5-37.2,2.1-74.4,2.4-111.6l0.1-13.9l0.1-13.9
		l0.1-27.9l-0.1-55.8l-0.6-55.8C1831,2209.4,1830.8,2190.8,1830.3,2172.2z"/>
</g>
<g class="st95">
	<path class="st2" d="M1755.3,2093.2c-1.5,17.9-2.3,35.8-2.8,53.6s-0.6,35.7-0.5,53.6c0.1,17.9,0.5,35.7,1.2,53.6
		c0.7,17.9,1.7,35.7,3.5,53.6c1.6-17.9,2.3-35.8,2.8-53.6c0.5-17.9,0.6-35.7,0.5-53.6c-0.1-17.9-0.5-35.7-1.2-53.6
		C1758,2128.9,1757.1,2111.1,1755.3,2093.2z"/>
</g>
</svg>
