<svg width="12" height="12" viewBox="0 0 12 12" fill="none" xmlns="http://www.w3.org/2000/svg">
<path d="M11.25 0.75834C10.925 0.43334 10.4 0.43334 10.075 0.75834L5.99998 4.82501L1.92498 0.750006C1.59998 0.425006 1.07498 0.425006 0.749976 0.750006C0.424976 1.07501 0.424976 1.60001 0.749976 1.92501L4.82498 6.00001L0.749976 10.075C0.424976 10.4 0.424976 10.925 0.749976 11.25C1.07498 11.575 1.59998 11.575 1.92498 11.25L5.99998 7.17501L10.075 11.25C10.4 11.575 10.925 11.575 11.25 11.25C11.575 10.925 11.575 10.4 11.25 10.075L7.17497 6.00001L11.25 1.92501C11.5666 1.60834 11.5666 1.07501 11.25 0.75834Z" fill="white"/>
</svg>
