<svg width="18" height="18" viewBox="0 0 18 18" fill="none" xmlns="http://www.w3.org/2000/svg">
<path fill-rule="evenodd" clip-rule="evenodd" d="M17.639 9.20419C17.639 8.56601 17.5818 7.95237 17.4754 7.36328H8.99902V10.8446H13.8427C13.634 11.9696 12.9999 12.9228 12.0468 13.561V15.8192H14.9554C16.6572 14.2524 17.639 11.9451 17.639 9.20419Z" fill="#4285F4"/>
<path fill-rule="evenodd" clip-rule="evenodd" d="M8.99878 18C11.4288 18 13.4661 17.1941 14.9551 15.8195L12.0465 13.5613C11.2406 14.1013 10.2097 14.4204 8.99878 14.4204C6.65469 14.4204 4.6706 12.8372 3.96287 10.71H0.956055V13.0418C2.43696 15.9831 5.4806 18 8.99878 18Z" fill="#34A853"/>
<path fill-rule="evenodd" clip-rule="evenodd" d="M3.96311 10.7098C3.78311 10.1698 3.68084 9.59301 3.68084 8.99983C3.68084 8.40664 3.78311 7.82983 3.96311 7.28983V4.95801H0.956296C0.346751 6.17301 -0.000976562 7.54755 -0.000976562 8.99983C-0.000976562 10.4521 0.346751 11.8266 0.956296 13.0416L3.96311 10.7098Z" fill="#FBBC05"/>
<path fill-rule="evenodd" clip-rule="evenodd" d="M8.99878 3.57955C10.3201 3.57955 11.5065 4.03364 12.4392 4.92545L15.0206 2.34409C13.462 0.891818 11.4247 0 8.99878 0C5.4806 0 2.43696 2.01682 0.956055 4.95818L3.96287 7.29C4.6706 5.16273 6.65469 3.57955 8.99878 3.57955Z" fill="#EA4335"/>
</svg>
