<svg width="40" height="40" viewBox="0 0 40 40" fill="none" xmlns="http://www.w3.org/2000/svg">
<path d="M20 15.04C17.264 15.04 15.04 17.264 15.04 20C15.04 22.736 17.264 24.96 20 24.96C22.736 24.96 24.96 22.736 24.96 20C24.96 17.264 22.736 15.04 20 15.04ZM39.856 10.144C39.848 8.6 39.56 7.072 39.016 5.624C38.208 3.488 36.512 1.8 34.376 0.984C32.928 0.44 31.4 0.152 29.856 0.144C27.28 0 26.52 0 20 0C13.48 0 12.72 0 10.136 0.136C8.592 0.144 7.064 0.432 5.616 0.976C3.48 1.792 1.792 3.48 0.976 5.616C0.432 7.064 0.152 8.592 0.136 10.144C0 12.72 0 13.48 0 20C0 26.52 0 27.28 0.136 29.856C0.16 31.408 0.448 32.944 0.984 34.4C1.384 35.456 2.008 36.408 2.808 37.2C3.608 38.008 4.568 38.624 5.624 39.024C7.072 39.568 8.6 39.856 10.144 39.864C12.72 40 13.48 40 20 40C26.52 40 27.28 40 29.856 39.856C31.4 39.848 32.928 39.56 34.376 39.016C35.44 38.624 36.4 38.008 37.2 37.2C38 36.408 38.624 35.456 39.024 34.4C39.568 32.944 39.856 31.408 39.864 29.856C40 27.28 40 26.52 40 20C40 13.48 40 12.72 39.856 10.144ZM34.776 26.144C34.712 27.376 34.448 28.592 34 29.744C33.216 31.68 31.68 33.216 29.736 34C28.576 34.424 27.352 34.664 26.12 34.704H13.88C12.64 34.664 11.424 34.432 10.264 34C9.272 33.632 8.376 33.04 7.648 32.28C6.92 31.56 6.36 30.696 6.008 29.736C5.576 28.576 5.352 27.352 5.328 26.12V13.88C5.352 12.64 5.576 11.416 6.008 10.264C6.376 9.272 6.968 8.376 7.728 7.648C8.448 6.928 9.312 6.368 10.264 6.008C11.424 5.584 12.648 5.344 13.88 5.312H26.12C27.36 5.352 28.576 5.584 29.736 6.008C30.728 6.376 31.624 6.968 32.36 7.728C33.088 8.448 33.648 9.312 34 10.264C34.424 11.424 34.664 12.648 34.704 13.88V20C34.704 20 34.84 24.544 34.784 26.12V26.144H34.776ZM31.576 11.264C31.096 9.96 30.064 8.928 28.76 8.448C27.872 8.144 26.936 7.992 26 8.008H14C13.056 8.016 12.12 8.192 11.24 8.528C9.952 8.984 8.928 9.976 8.424 11.248C8.136 12.136 7.992 13.072 8.008 14.008V26.008C8.024 26.952 8.2 27.88 8.528 28.768C9.008 30.072 10.04 31.104 11.344 31.584C12.2 31.896 13.096 32.072 14 32.104H26C26.944 32.096 27.88 31.92 28.76 31.584C30.064 31.104 31.096 30.072 31.576 28.768C31.912 27.888 32.088 26.952 32.096 26.008V14.008C32.096 13.064 31.92 12.128 31.576 11.248V11.264ZM20 27.64C15.792 27.64 12.376 24.232 12.376 20.024V20C12.376 15.784 15.8 12.36 20.016 12.36C24.232 12.36 27.656 15.784 27.656 20C27.656 24.216 24.232 27.64 20.016 27.64H20ZM28 13.856C27.008 13.752 26.296 12.864 26.4 11.88C26.488 11.032 27.16 10.368 28 10.28C28.992 10.384 29.704 11.272 29.6 12.256C29.512 13.104 28.848 13.768 28 13.856Z" fill="#21054C"/>
</svg>
