<svg width="40" height="40" viewBox="0 0 40 40" fill="none" xmlns="http://www.w3.org/2000/svg">
<path d="M37.04 0H2.952C1.32 0 0 1.288 0 2.88V37.112C0 38.704 1.32 40 2.952 40H37.04C38.672 40 40 38.704 40 37.112V2.88C40 1.288 38.672 0 37.04 0ZM11.864 34.088H5.928V15H11.864V34.088ZM8.896 12.384C6.992 12.384 5.456 10.84 5.456 8.944C5.456 7.048 6.992 5.504 8.896 5.504C10.8 5.504 12.336 7.048 12.336 8.944C12.336 10.84 10.792 12.384 8.896 12.384ZM34.08 34.088H28.16V24.8C28.16 22.584 28.12 19.736 25.08 19.736C22.04 19.736 21.52 22.144 21.52 24.64V34.08H15.592V15H21.28V17.6H21.36C22.152 16.096 24.088 14.52 26.976 14.52C32.976 14.52 34.088 18.472 34.088 23.616L34.08 34.088Z" fill="#21054C"/>
</svg>
