<svg width="40" height="40" viewBox="0 0 40 40" fill="none" xmlns="http://www.w3.org/2000/svg">
<path d="M34 0H6C2.688 0 0 2.688 0 6V34C0 37.312 2.688 40 6 40H34C37.312 40 40 37.312 40 34V6C40 2.688 37.312 0 34 0ZM33.352 26.792C33.04 27.968 32.024 28.904 30.856 29.216C27.968 30 11.952 30 9.136 29.216C7.968 28.904 6.952 27.96 6.64 26.792C5.856 23.744 5.936 16.168 6.64 13.2C6.952 12.032 7.968 11.096 9.144 10.776C12.192 9.992 28.208 10.072 30.864 10.776C32.032 11.088 33.048 12.032 33.36 13.2C34.064 16.096 34.064 23.984 33.352 26.792ZM17.184 15.856V24.136L24.448 19.992" fill="#21054C"/>
</svg>
