<svg width="18" height="17" viewBox="0 0 18 17" fill="none" xmlns="http://www.w3.org/2000/svg">
<path d="M8.99999 0.166992C4.39999 0.166992 0.666656 3.90033 0.666656 8.50033C0.666656 13.1003 4.39999 16.8337 8.99999 16.8337C13.6 16.8337 17.3333 13.1003 17.3333 8.50033C17.3333 3.90033 13.6 0.166992 8.99999 0.166992ZM12.3333 9.33366H9.83332V11.8337C9.83332 12.292 9.45832 12.667 8.99999 12.667C8.54166 12.667 8.16666 12.292 8.16666 11.8337V9.33366H5.66666C5.20832 9.33366 4.83332 8.95866 4.83332 8.50033C4.83332 8.04199 5.20832 7.66699 5.66666 7.66699H8.16666V5.16699C8.16666 4.70866 8.54166 4.33366 8.99999 4.33366C9.45832 4.33366 9.83332 4.70866 9.83332 5.16699V7.66699H12.3333C12.7917 7.66699 13.1667 8.04199 13.1667 8.50033C13.1667 8.95866 12.7917 9.33366 12.3333 9.33366Z" fill="white"/>
</svg>
