<svg width="40" height="40" viewBox="0 0 40 40" fill="none" xmlns="http://www.w3.org/2000/svg">
<rect width="40" height="40" rx="4" fill="url(#paint0_linear_120_11630)"/>
<path d="M13 30C12.45 30 11.9792 29.8042 11.5875 29.4125C11.1958 29.0208 11 28.55 11 28V14C11 13.45 11.1958 12.9792 11.5875 12.5875C11.9792 12.1958 12.45 12 13 12H14V11C14 10.7167 14.0958 10.4792 14.2875 10.2875C14.4792 10.0958 14.7167 10 15 10C15.2833 10 15.5208 10.0958 15.7125 10.2875C15.9042 10.4792 16 10.7167 16 11V12H24V11C24 10.7167 24.0958 10.4792 24.2875 10.2875C24.4792 10.0958 24.7167 10 25 10C25.2833 10 25.5208 10.0958 25.7125 10.2875C25.9042 10.4792 26 10.7167 26 11V12H27C27.55 12 28.0208 12.1958 28.4125 12.5875C28.8042 12.9792 29 13.45 29 14V28C29 28.55 28.8042 29.0208 28.4125 29.4125C28.0208 29.8042 27.55 30 27 30H13ZM13 28H27V18H13V28ZM13 16H27V14H13V16Z" fill="white"/>
<defs>
<linearGradient id="paint0_linear_120_11630" x1="-6.65896e-07" y1="3.75" x2="40" y2="40" gradientUnits="userSpaceOnUse">
<stop stop-color="#E27D93"/>
<stop offset="0.348958" stop-color="#3B0099"/>
<stop offset="1" stop-color="#21054C"/>
</linearGradient>
</defs>
</svg>
